/* XPM */
static char *blue_key_xpm[] = {
/* columns rows colors chars-per-pixel */
"22 14 21 1",
"  c Gray0",
". c Gray17",
"X c #353939",
"o c #383c3c",
"O c #3f4747",
"+ c #484c4c",
"@ c #485151",
"# c #495555",
"$ c #4d5555",
"% c #555555",
"& c #5f5f5f",
"* c #707878",
"= c Gray50",
"- c #8e8e8e",
"; c Gray61",
": c #92aaaa",
"> c #aaaaaa",
", c #b9b9b9",
"< c #d5d5d5",
"1 c #daffff",
"2 c None",
/* pixels */
"2222222222222222222222",
"2222222222222222222222",
"222222222222>$##$$2222",
"222222222222@:111:@222",
"22>$$$$$$$$$#111:::+22",
"2>@111111111111:OO: 22",
"2+:111111111111:Oo: 22",
"2>X# O O#O.O1111::1 22",
"22;====--=-&O11111#X22",
"22222222<<2<*#:11#X;22",
"222222222222,&XOO%=222",
"2222222222222<;--;2222",
"2222222222222222222222",
"2222222222222222222222"
};
