/* XPM */
static char * blue_yellow_cardkey_xpm[] = {
"22 14 39 1",
" 	c None",
".	c #AAAAAA",
"+	c #555129",
"@	c #000000",
"#	c #554E12",
"$	c #FFE935",
"%	c #AA9C24",
"&	c #514C24",
"*	c #555555",
"=	c #AAA67E",
"-	c #8E8E8E",
";	c #7F7F7F",
">	c #393939",
",	c #716C45",
"'	c #47421A",
")	c #2B2B2B",
"!	c #9C9C9C",
"~	c #707070",
"{	c #737575",
"]	c #6E7171",
"^	c #868E8E",
"/	c #9EAAAA",
"(	c #DAFFFF",
"_	c #BCD5D5",
":	c #5C5F5F",
"<	c #8C9C9C",
"[	c #3B3F3F",
"}	c #92AAAA",
"|	c #495555",
"1	c #404949",
"2	c #697171",
"3	c #3F4747",
"4	c #545959",
"5	c #828484",
"6	c #303030",
"7	c #FF9D00",
"8	c #B9B9B9",
"9	c #D5D5D5",
"0	c #353939",
"            .+@@+     ",
"           .#$$$%&.   ",
"  .********@%$$$$$&   ",
" =#$$$$$$$$$$$$#@##-  ",
" @$$$$$$$$$$$$$@;##>  ",
" ,#'#@''#''%$$$%#%#)  ",
" !**;;~;*~~'$$$$$$'{. ",
"  ]^/((_/((:'%$$$#,<[ ",
" @@@@@@@}(||*'@@'*{}1 ",
" @$$$$$@23*;45;;;/(|6 ",
" @$7$$$@8;9 ;|((((}3! ",
" @$$$$$@     03|||3;9 ",
" @@@@@@@     !;))*;9  ",
"               ...    "};
