/* XPM */
static char * decrypt_xpm[] = {
"23 24 245 2",
"  	c None",
". 	c #2E2E2E",
"+ 	c #8B8A8A",
"@ 	c #AFADAD",
"# 	c #040404",
"$ 	c #000000",
"% 	c #010101",
"& 	c #0F0F0F",
"* 	c #1D1D1D",
"= 	c #222222",
"- 	c #383838",
"; 	c #333232",
"> 	c #9D9B9B",
", 	c #2A2A2A",
"' 	c #0C0C0C",
") 	c #595959",
"! 	c #454545",
"~ 	c #0D0D0D",
"{ 	c #0A0A0A",
"] 	c #BABABA",
"^ 	c #D7D7D7",
"/ 	c #767575",
"( 	c #A7A5A5",
"_ 	c #080808",
": 	c #1C1C1C",
"< 	c #3A3A3A",
"[ 	c #AEAEAE",
"} 	c #FBFBFB",
"| 	c #FEFEFE",
"1 	c #A9A9A9",
"2 	c #2B2B2B",
"3 	c #939292",
"4 	c #A6A5A5",
"5 	c #181818",
"6 	c #030303",
"7 	c #141414",
"8 	c #878787",
"9 	c #E2E2E2",
"0 	c #FDFDFD",
"a 	c #ECECEC",
"b 	c #484848",
"c 	c #9F9D9D",
"d 	c #262626",
"e 	c #6F6F6F",
"f 	c #FFFFFF",
"g 	c #FCFCFC",
"h 	c #BFBFBF",
"i 	c #252525",
"j 	c #848484",
"k 	c #B2B1B1",
"l 	c #B1B0B0",
"m 	c #101010",
"n 	c #444444",
"o 	c #B6B6B6",
"p 	c #F7F7F7",
"q 	c #F8F8F8",
"r 	c #676665",
"s 	c #838382",
"t 	c #E1E1E1",
"u 	c #7F7F7F",
"v 	c #6A6A6A",
"w 	c #9C9C9C",
"x 	c #BAB8B8",
"y 	c #575757",
"z 	c #F5F5F5",
"A 	c #D3D3D1",
"B 	c #6A6342",
"C 	c #A68B1D",
"D 	c #D0AE21",
"E 	c #9F841A",
"F 	c #625830",
"G 	c #B4B3B0",
"H 	c #A9A8A8",
"I 	c #B1AFAF",
"J 	c #323232",
"K 	c #1E1E1E",
"L 	c #C4C4C4",
"M 	c #7E7965",
"N 	c #CCAB20",
"O 	c #F0C826",
"P 	c #87752E",
"Q 	c #7B7356",
"R 	c #917917",
"S 	c #474129",
"T 	c #4D4D4D",
"U 	c #807F7F",
"V 	c #A3A1A1",
"W 	c #9B9B9B",
"X 	c #555555",
"Y 	c #3D3D3D",
"Z 	c #020202",
"` 	c #696969",
" .	c #FAFAFA",
"..	c #615837",
"+.	c #EEC626",
"@.	c #F7CE27",
"#.	c #9A8321",
"$.	c #6F6128",
"%.	c #DCB723",
"&.	c #5F511C",
"*.	c #C5C5C5",
"=.	c #707070",
"-.	c #474646",
";.	c #686767",
">.	c #585858",
",.	c #6B6B6B",
"'.	c #4B4B4B",
").	c #161616",
"!.	c #DCDCDC",
"~.	c #65604D",
"{.	c #FED428",
"].	c #F9D027",
"^.	c #F1C926",
"/.	c #685E37",
"(.	c #9E9E9E",
"_.	c #2D2C2C",
":.	c #8F8E8E",
"<.	c #737373",
"[.	c #050505",
"}.	c #4A4A4A",
"|.	c #BCBCBC",
"1.	c #CDCDCD",
"2.	c #343434",
"3.	c #7D7D7D",
"4.	c #AEADAB",
"5.	c #7B6A24",
"6.	c #E8C224",
"7.	c #E5BF24",
"8.	c #F8CF27",
"9.	c #F4CC26",
"0.	c #857224",
"a.	c #B4B3AF",
"b.	c #DFDFDF",
"c.	c #121212",
"d.	c #777676",
"e.	c #B8B7B7",
"f.	c #171717",
"g.	c #606060",
"h.	c #787878",
"i.	c #B4B4B4",
"j.	c #828282",
"k.	c #DEDEDE",
"l.	c #B9B9B7",
"m.	c #73652C",
"n.	c #D1AF22",
"o.	c #635310",
"p.	c #3D330A",
"q.	c #61510F",
"r.	c #61531C",
"s.	c #8D8B80",
"t.	c #F3F3F3",
"u.	c #F1F1F1",
"v.	c #191919",
"w.	c #5D5C5C",
"x.	c #A2A1A1",
"y.	c #303030",
"z.	c #969696",
"A.	c #A7A7A7",
"B.	c #8F8E8D",
"C.	c #746421",
"D.	c #E2BC24",
"E.	c #867119",
"F.	c #747474",
"G.	c #E5E5E5",
"H.	c #949494",
"I.	c #F4F4F4",
"J.	c #404040",
"K.	c #343333",
"L.	c #A19F9F",
"M.	c #1F1F1F",
"N.	c #525252",
"O.	c #A8A7A6",
"P.	c #5D501A",
"Q.	c #DAB623",
"R.	c #917A1E",
"S.	c #7C7864",
"T.	c #D0D0D0",
"U.	c #A6A6A6",
"V.	c #A2A0A0",
"W.	c #2F2F2F",
"X.	c #D9D9D9",
"Y.	c #635724",
"Z.	c #DEB923",
"`.	c #806C1C",
" +	c #686868",
".+	c #EBEBEB",
"++	c #060606",
"@+	c #040303",
"#+	c #858383",
"$+	c #888888",
"%+	c #1B1B1B",
"&+	c #BBBBBB",
"*+	c #65561A",
"=+	c #A1871A",
"-+	c #706B59",
";+	c #CACACA",
">+	c #646363",
",+	c #B4B3B3",
"'+	c #090909",
")+	c #858585",
"!+	c #D2D2D2",
"~+	c #333333",
"{+	c #929292",
"]+	c #EAEAEA",
"^+	c #B8B8B8",
"/+	c #5D5D5D",
"(+	c #2D2D2D",
"_+	c #191818",
":+	c #2A2929",
"<+	c #434242",
"[+	c #7B7A7A",
"}+	c #A7A6A6",
"|+	c #505050",
"1+	c #868686",
"2+	c #959595",
"3+	c #636363",
"4+	c #424242",
"5+	c #282828",
"6+	c #535252",
"7+	c #706F6F",
"8+	c #807E7E",
"9+	c #959393",
"0+	c #B0AFAF",
"a+	c #767676",
"b+	c #212121",
"c+	c #2E2D2D",
"d+	c #3F3F3F",
"e+	c #626262",
"f+	c #858484",
"g+	c #A8A6A6",
"h+	c #9A9898",
"i+	c #A09E9E",
"j+	c #BCBBBB",
"k+	c #0B0B0B",
"l+	c #5F5F5F",
"m+	c #7D7C7C",
"n+	c #868585",
"o+	c #A9A7A7",
"p+	c #878686",
"q+	c #999898",
"r+	c #AFAEAE",
"s+	c #ACABAB",
"t+	c #BFBEBE",
"u+	c #BBBABA",
"v+	c #B6B5B5",
"                                              ",
"                          . + @               ",
"            # $ % &   * = - ; >               ",
"          , ' ) ! ~ { ! ] ^ - / (             ",
"          _ : = _ < [ } | | 1 2 3 4           ",
"        5 { 6 7 8 9 0 | | | a b ) c           ",
"    d 5 % 5 e 9 f f f | | g 0 h i j k l       ",
"    m $ n o p f f f f q 1 r s t u v w x       ",
"    $ $ y z f f f f A B C D E F G u b H I     ",
"  5 . J K L | | | | M N O P Q R S b T U V     ",
"W X Y m Z ` q f f  ...+.@.#.$.%.&.*.=.-.c     ",
";.>.,.=.'.).!.f f | ~.D {.].^.O /. .(._.:.    ",
"<.[.}.|.1.2.3.0  .4.5.6.7.8.9.0.a.| b.c.d.e.  ",
"  f.j g.h.i.j.k.l.m.n.o.p.q.r.s.t.| u.v.w.x.  ",
"  y.W f b.z.A.B.C.D.E.. F.*.G.F.H.t I.J.K.L.  ",
"  M.N.q f | O.P.Q.R.S.T.} | | !.'.Y U.>.7 V.  ",
"  n W.^ f X.Y.Z.`. +u.| | | | | .+'.++).@+#+  ",
"  $+%+&+f o *+=+-+b.f | | | | | 0 ;+2 $ Z >+,+",
"    '+)+!+~+y.{+9 f 0 ]+!+^+H./+(+' _+:+<+[+}+",
"    ~+|+) 6 1+z ;+2+3+4+5+& '+_.6+7+8+9+0+    ",
"    a+[.$ $ b+'+# 5 c+d+e+f+g+h+i+j+          ",
"     +'+$ k+- l+m+n+9+o+                      ",
"      p+q+r+s+V x.t+                          ",
"      u+v+                                    "};
