/* XPM */
static char *delete_xpm[] = {
/* columns rows colors chars-per-pixel */
"32 32 37 1",
"  c Gray0",
". c Gray4",
"X c Gray6",
"o c #131313",
"O c #181818",
"+ c #1d1d1d",
"@ c #202020",
"# c Gray15",
"$ c Gray16",
"% c Gray17",
"& c Gray19",
"* c #343434",
"= c Gray21",
"- c #393939",
"; c #3c3c3c",
": c Gray24",
"> c Gray25",
", c Gray26",
"< c #444444",
"1 c Gray28",
"2 c #4c4c4c",
"3 c Gray30",
"4 c #515151",
"5 c #555555",
"6 c #5f5f5f",
"7 c Gray39",
"8 c #686868",
"9 c #717171",
"0 c #727272",
"q c #777777",
"w c Gray50",
"e c Gray61",
"r c #aaaaaa",
"t c #b2b2b2",
"y c #b9b9b9",
"u c #d5d5d5",
"i c None",
/* pixels */
"iiiiiiiiiiiiiiiiiiiiiiiiiiiiiiii",
"iiiiiiiiiiiiiiiiiiiii55<5iiiiiii",
"iiiiiiiiiiiro6iiiir3 5555 >iiiii",
"iiiiiiiiir&  5uiir riiiiii5 uiii",
"iiiiii5 .  +8<<<r riir  5ii5-uii",
"iiiii5 X X8>;qt*55iii 5e<rii5*ii",
"iiiii&  +u;qttt*5iiii 5i35ii5-ui",
"iii5  +ei>qttt;$5iiiir 33iiii ri",
"ii+  6uir;tq;;;#5iiiiiiriiiii ri",
"irO@ui>3-tq*5ww75iiiiiiiiiiir<ri",
"iiiiii*;;t yiii55iiiiiiiiiii5-ri",
"iiiiii-;t;*iiiii 5riiiiiiiii 5ui",
"iiiiii-;tt;<iiiiu riiiiiiii5-rii",
"iiiiii0;q;&eiiiii>5iiiirii5-wiii",
"iiiiiii;*6uiiiiii55iirr   -euiii",
"ii5           uii iii  $reriiiii",
"ii< 55  55 r5$ri55iir1eriiiiiiii",
"ii55rr  rr irrri4rii5$riiiiiiiii",
"iirrrr  rr iri%r iii5$iiiiiiiiii",
"iirrrr  rr iri%55iii5 riiiiiiiii",
"ii< rr  rr ir - riir 0riiiiiiiii",
"ii5 rr  rr ir$r5iii wriiiiiiiiii",
"ii5 rr  rr ir$55iii55iiiiiiiiiii",
"ii5 rr  rr ir$ iii5<wiiiiiiiiiii",
"ii5 rr  rr ir$5iii55uiiiiiiiiiii",
"ii5 rr  rr ir$riir5$uiiiiiiiiiii",
"ii5 rr  rr ir%iii5$wiiiiiiiiiiii",
"ii5 rr  rr ir%riir riiiiiiiiiiii",
"ii5 55  55 r5%5i5 -riiiiiiiiiiii",
"ii5          $> -5euiiiiiiiiiiii",
"iiiiiiiiiiiiiiurruiiiiiiiiiiiiii",
"iiiiiiiiiiiiiiiiiiiiiiiiiiiiiiii"
};
