/* XPM */
static char * export_xpm[] = {
"24 24 181 2",
"  	c None",
". 	c #555555",
"+ 	c #4E4A44",
"@ 	c #534938",
"# 	c #554935",
"$ 	c #55452A",
"% 	c #15110A",
"& 	c #4B4B4B",
"* 	c #4E4638",
"= 	c #AF8E56",
"- 	c #FFCF7C",
"; 	c #BF9B5D",
"> 	c #584C37",
", 	c #999999",
"' 	c #94918C",
") 	c #28231A",
"! 	c #494236",
"~ 	c #9F814E",
"{ 	c #EABE72",
"] 	c #635234",
"^ 	c #616160",
"/ 	c #807D78",
"( 	c #151412",
"_ 	c #75654A",
": 	c #A98A54",
"< 	c #CFA865",
"[ 	c #DFB56D",
"} 	c #A28450",
"| 	c #5C554A",
"1 	c #B0B0AF",
"2 	c #8F8B84",
"3 	c #6D5B3C",
"4 	c #7F673E",
"5 	c #EFC274",
"6 	c #6E5A39",
"7 	c #715D39",
"8 	c #D5AD68",
"9 	c #4B4337",
"0 	c #7F7F7F",
"a 	c #5E5950",
"b 	c #7A6F5A",
"c 	c #9E8250",
"d 	c #907549",
"e 	c #67645F",
"f 	c #59534A",
"g 	c #2B2315",
"h 	c #6F6D6A",
"i 	c #AAAAAA",
"j 	c #675F51",
"k 	c #A28654",
"l 	c #DEB46D",
"m 	c #FACB79",
"n 	c #554F45",
"o 	c #252525",
"p 	c #262320",
"q 	c #161513",
"r 	c #A3A3A3",
"s 	c #9A7D4B",
"t 	c #655334",
"u 	c #404040",
"v 	c #434343",
"w 	c #808080",
"x 	c #303030",
"y 	c #3D3D3D",
"z 	c #7E7565",
"A 	c #A88954",
"B 	c #F4C677",
"C 	c #8E8E8E",
"D 	c #313131",
"E 	c #555757",
"F 	c #111313",
"G 	c #191919",
"H 	c #343434",
"I 	c #4F4F4F",
"J 	c #7A643F",
"K 	c #50442F",
"L 	c #8D8D8D",
"M 	c #4B5050",
"N 	c #0D0F0F",
"O 	c #2F3636",
"P 	c #3D4646",
"Q 	c #161818",
"R 	c #333333",
"S 	c #40382A",
"T 	c #E4B96F",
"U 	c #705E3F",
"V 	c #7A7874",
"W 	c #D5D5D5",
"X 	c #121515",
"Y 	c #3B4545",
"Z 	c #586767",
"` 	c #111414",
" .	c #374040",
"..	c #495555",
"+.	c #6C6D6D",
"@.	c #2A2215",
"#.	c #B39258",
"$.	c #909090",
"%.	c #364040",
"&.	c #B0CDCD",
"*.	c #738787",
"=.	c #9BB5B5",
"-.	c #92AAAA",
";.	c #323636",
">.	c #665944",
",.	c #64543A",
"'.	c #787775",
").	c #485252",
"!.	c #202424",
"~.	c #A4BFBF",
"{.	c #DAFFFF",
"].	c #CCEFEF",
"^.	c #778A8A",
"/.	c #505353",
"(.	c #2D2B28",
"_.	c #A4A4A4",
":.	c #414444",
"<.	c #546060",
"[.	c #404B4B",
"}.	c #617171",
"|.	c #3A4040",
"1.	c #A1A1A1",
"2.	c #60543F",
"3.	c #504C45",
"4.	c #949494",
"5.	c #4B5555",
"6.	c #889F9F",
"7.	c #202525",
"8.	c #3D4747",
"9.	c #171919",
"0.	c #3C4343",
"a.	c #211D17",
"b.	c #80673E",
"c.	c #7A7A7A",
"d.	c #4C4E4E",
"e.	c #445050",
"f.	c #343D3D",
"g.	c #647575",
"h.	c #252626",
"i.	c #4D3F27",
"j.	c #323A3A",
"k.	c #6C7E7E",
"l.	c #393D3D",
"m.	c #758888",
"n.	c #7C7C7C",
"o.	c #394242",
"p.	c #7F9595",
"q.	c #6A6D6D",
"r.	c #75613F",
"s.	c #5B4C34",
"t.	c #868686",
"u.	c #242828",
"v.	c #526060",
"w.	c #5C6767",
"x.	c #585A5A",
"y.	c #404A4A",
"z.	c #667575",
"A.	c #7D8080",
"B.	c #484E4E",
"C.	c #5B6A6A",
"D.	c #434B4B",
"E.	c #8A847A",
"F.	c #AA8A53",
"G.	c #38332B",
"H.	c #919494",
"I.	c #878989",
"J.	c #3C3D3D",
"K.	c #728585",
"L.	c #3B4242",
"M.	c #515555",
"N.	c #6E8080",
"O.	c #4E5858",
"P.	c #B5B5B5",
"Q.	c #151515",
"R.	c #15110B",
"S.	c #675A42",
"T.	c #85827C",
"U.	c #1D1E1E",
"V.	c #797B7B",
"W.	c #242626",
"X.	c #4E4E4E",
"                                                ",
"                            . . . .             ",
"                          + @ # # # $ $ % &     ",
"                            * = - - - ; > ,     ",
"                        ' ) ! ~ - - { ] ^       ",
"                    / ( _ : < [ [ - } | 1       ",
"                2 3 4 [ - - 5 6 7 8 9 0         ",
"            a b c [ - - - { d e f g h i         ",
"          j k l m - - - 5 d n o p q r           ",
"        a s - - - - - 5 t u v w   x y           ",
"      z A B - - - - - ~ u C D E F G H I         ",
"    i J B - - - - - ; K L i M N O P Q R         ",
"    S < - - - - - T U V W X X Y Z `  ...+.      ",
"    @.- - - - - - #.| $.  ....%.&.*.=.-.;.      ",
"    >.- - - - - - ,.'.    ).!.Y ~.{.].^./.      ",
"  . # - - - - - 5 (._.    :.<.` [.}.=.|.1.      ",
"  0 2.- - - - - ~ 3.4.    5.6.7.8.9...0.        ",
"    a.- - - - - b.c.i   d.6.e.f.g.h.g.}.c.      ",
"    ( [ - - - - i.0     j.k.l.%.m.n.o.p.q.      ",
"      r.{ - - 8 s.t.  u.v.w.x.y.z.A.B.C.D.      ",
"      E.r.[ - F.G.r   H.:.I.J.K.L.  M.N.O.P.    ",
"          Q.R.S.T.P.        i U.V.    W.X.      ",
"                P.                              ",
"                                                "};
