/* XPM */
static char *help_xpm[] = {
/* columns rows colors chars-per-pixel */
"32 32 19 1",
"  c Gray0",
". c Gray17",
"X c #39332a",
"o c #473c2a",
"O c #4c412f",
"+ c #55452a",
"@ c #514634",
"# c #554b38",
"$ c #555047",
"% c #555555",
"& c #716654",
"* c #727272",
"= c Gray50",
"- c #aa8a53",
"; c #ffcf7c",
": c #aaa08e",
"> c #aaaaaa",
", c #d5d5d5",
"< c None",
/* pixels */
"<<<<<<<<<<<<<<<<<<<<<<<<<<<<<<<<",
"<<<<<<<<<<<<<<<<<<<<<<<<<<<<<<<<",
"<<<<<<<<<<<<<<<<<<<<<<<<<<<<<<<<",
"<<<<<<<<$#   ##><<<<<<$  #><<<<<",
"<<<<<<$ +;;;;;-+O><<<$+;;- ,<<<<",
"<<<<<$+;;;;;;;;;-+*<<#;;;;+%<<<<",
"<<<<$+;;;;;;;;;;;;o*<#;;;;+=><<<",
"<<<>+;;;;+ ooo-;;;-o>#;;;;+=><<<",
"<<<$+;;;+X=,<> ;;;; =#;;;;+=><<<",
"<<<#;;;-o=,<<<#-;;;+%#;;;;+%><<<",
"<<<$+;;+%><<<<#-;;;+%@;;;;+%><<<",
"<<<<$  X=<<<<>+;;;;+=@-;;;+=<<<<",
"<<<<<<,><<<<> -;;;-o=$+;;; =<<<<",
"<<<<<<<<<<<> -;;;; %>%+;;; =<<<<",
"<<<<<<<<<<:#;;;;- %><>+;;;o=<<<<",
"<<<<<<<<<%+;;;;- %><<<+;;-o><<<<",
"<<<<<<<<<#;;;;+X=><<<< ;;+.><<<<",
"<<<<<<<<>+;;;+X=,<<<<< ;;+.><<<<",
"<<<<<<<<%+;;; =,<<<<<<#;;+%><<<<",
"<<<<<<<<< -;+X><<<<<<<$+; =<<<<<",
"<<<<<<<<<>@oX=,<<<<<<<<#O&><<<<<",
"<<<<<<<<<<<<<<<<<<<<<<<<<<<<<<<<",
"<<<<<<<<<># $<<<<<<<<<># $<<<<<<",
"<<<<<<<<>+-;- ,<<<<<<>+;;-o,<<<<",
"<<<<<<<<#-;;;+.,<<<<<#-;;;+%<<<<",
"<<<<<<<<#;;;;+.><<<<< ;;;;+.><<<",
"<<<<<<<<$+;;;o%><<<<<$+;;; =,<<<",
"<<<<<<<<<$++ &=<<<<<<<#++ &><<<<",
"<<<<<<<<<<>*>><<<<<<<<<>*>><<<<<",
"<<<<<<<<<<<<<<<<<<<<<<<<<<<<<<<<",
"<<<<<<<<<<<<<<<<<<<<<<<<<<<<<<<<",
"<<<<<<<<<<<<<<<<<<<<<<<<<<<<<<<<"
};
