/* XPM */
static char* keyring_xpm[]={
"35 36 443 2",
"  	c None",
". 	c #707070",
"+ 	c #8B8987",
"@ 	c #897C71",
"# 	c #746D68",
"$ 	c #292828",
"% 	c #030303",
"& 	c #92908F",
"* 	c #8D7C6F",
"= 	c #7F746C",
"- 	c #41403F",
"; 	c #010101",
"> 	c #5F5F5F",
", 	c #ABAAAA",
"' 	c #7E7B7A",
") 	c #5A5857",
"! 	c #242423",
"~ 	c #0B0B0B",
"{ 	c #7F7874",
"] 	c #E7A671",
"^ 	c #FFB172",
"/ 	c #EFAA71",
"( 	c #776F6A",
"_ 	c #171717",
": 	c #0E0E0E",
"< 	c #8B8581",
"[ 	c #DEA171",
"} 	c #FCB071",
"| 	c #B79070",
"1 	c #424040",
"2 	c #000000",
"3 	c #8E8B89",
"4 	c #C49670",
"5 	c #EFA971",
"6 	c #8F7D6F",
"7 	c #232222",
"8 	c #090909",
"9 	c #A78870",
"0 	c #C69670",
"a 	c #3E3D3C",
"b 	c #B18D70",
"c 	c #FCAF71",
"d 	c #7F736A",
"e 	c #070606",
"f 	c #585858",
"g 	c #A0856F",
"h 	c #E3A471",
"i 	c #5D5A58",
"j 	c #E0A371",
"k 	c #4B4A49",
"l 	c #C59670",
"m 	c #95806F",
"n 	c #0F0E0E",
"o 	c #5B5B5B",
"p 	c #C19470",
"q 	c #726C68",
"r 	c #A88970",
"s 	c #C39570",
"t 	c #3A3938",
"u 	c #2C2C2C",
"v 	c #F5AA6D",
"w 	c #A7744A",
"x 	c #CA8C5A",
"y 	c #F4AB70",
"z 	c #766E67",
"A 	c #040404",
"B 	c #A48770",
"C 	c #E6A571",
"D 	c #605D5B",
"E 	c #847D78",
"F 	c #DFA271",
"G 	c #FBAF71",
"H 	c #716962",
"I 	c #131313",
"J 	c #6A6765",
"K 	c #16110E",
"L 	c #523926",
"M 	c #37291D",
"N 	c #201914",
"O 	c #252424",
"P 	c #6A6A6A",
"Q 	c #8B8886",
"R 	c #CC9970",
"S 	c #F3AB71",
"T 	c #937F6F",
"U 	c #282727",
"V 	c #737373",
"W 	c #716F6F",
"X 	c #7A736F",
"Y 	c #76726F",
"Z 	c #535151",
"` 	c #222222",
" .	c #8F8F8F",
"..	c #201F1F",
"+.	c #747372",
"@.	c #79736F",
"#.	c #71706F",
"$.	c #313030",
"%.	c #575757",
"&.	c #686767",
"*.	c #585756",
"=.	c #676564",
"-.	c #7B746F",
";.	c #494847",
">.	c #302F2F",
",.	c #605F5F",
"'.	c #494949",
").	c #8F8C89",
"!.	c #9A826F",
"~.	c #C79770",
"{.	c #A58770",
"].	c #74716F",
"^.	c #917E6F",
"/.	c #68574A",
"(.	c #544133",
"_.	c #7D746D",
":.	c #1F1F1F",
"<.	c #6F5E50",
"[.	c #8F7C6E",
"}.	c #444242",
"|.	c #7D7D7D",
"1.	c #84807D",
"2.	c #DBA071",
"3.	c #87796F",
"4.	c #C3895A",
"5.	c #513824",
"6.	c #85786F",
"7.	c #C88E5F",
"8.	c #2B1E13",
"9.	c #F6AB6E",
"0.	c #FEB071",
"a.	c #947F6F",
"b.	c #141313",
"c.	c #383838",
"d.	c #B58F70",
"e.	c #FFB072",
"f.	c #BB906E",
"g.	c #21170F",
"h.	c #956742",
"i.	c #765235",
"j.	c #8D623F",
"k.	c #D1915D",
"l.	c #786F68",
"m.	c #DB9861",
"n.	c #45301E",
"o.	c #D89660",
"p.	c #1B1A1A",
"q.	c #A4A2A2",
"r.	c #D69E71",
"s.	c #D59D70",
"t.	c #534539",
"u.	c #0F0C09",
"v.	c #090B0C",
"w.	c #010202",
"x.	c #050606",
"y.	c #1B2123",
"z.	c #242C2E",
"A.	c #070706",
"B.	c #5B4D41",
"C.	c #E8A671",
"D.	c #B38E70",
"E.	c #C09470",
"F.	c #868280",
"G.	c #F5AC71",
"H.	c #F4AC71",
"I.	c #E4A471",
"J.	c #F6AC71",
"K.	c #986943",
"L.	c #293437",
"M.	c #1C2325",
"N.	c #4B5E63",
"O.	c #1A2123",
"P.	c #45575B",
"Q.	c #96BDC6",
"R.	c #729097",
"S.	c #98BFC9",
"T.	c #303C3F",
"U.	c #0B0C0D",
"V.	c #A5754E",
"W.	c #99816F",
"X.	c #AA8A70",
"Y.	c #B99070",
"Z.	c #72706F",
"`.	c #E2A371",
" +	c #E9A671",
".+	c #B78F6F",
"++	c #24201A",
"@+	c #3F4F53",
"#+	c #546A6F",
"$+	c #4C6064",
"%+	c #576E73",
"&+	c #AAD6E1",
"*+	c #475A5E",
"=+	c #040606",
"-+	c #191F21",
";+	c #263032",
">+	c #89ACB5",
",+	c #232B2D",
"'+	c #B47C50",
")+	c #FEB171",
"!+	c #96806F",
"~+	c #655B53",
"{+	c #3E4E52",
"]+	c #1F282A",
"^+	c #9FC8D2",
"/+	c #1E2628",
"(+	c #A0CAD4",
"_+	c #ABD7E2",
":+	c #38474B",
"<+	c #020202",
"[+	c #0A0C0D",
"}+	c #96BDC7",
"|+	c #90B5BE",
"1+	c #3E2B1B",
"2+	c #ADACAB",
"3+	c #CD9A70",
"4+	c #FAAF71",
"5+	c #78726F",
"6+	c #9B836F",
"7+	c #464544",
"8+	c #556B71",
"9+	c #14191B",
"0+	c #91B7C0",
"a+	c #2A3437",
"b+	c #4A5D62",
"c+	c #678289",
"d+	c #A5D0DB",
"e+	c #201D19",
"f+	c #716F6E",
"g+	c #BE9370",
"h+	c #575555",
"i+	c #344144",
"j+	c #131819",
"k+	c #121719",
"l+	c #A1CBD5",
"m+	c #1B1814",
"n+	c #857C75",
"o+	c #C29570",
"p+	c #DAA071",
"q+	c #6B6968",
"r+	c #151514",
"s+	c #617A80",
"t+	c #354346",
"u+	c #75939A",
"v+	c #6C878E",
"w+	c #5D4029",
"x+	c #A18570",
"y+	c #9F856F",
"z+	c #77726F",
"A+	c #F8AD71",
"B+	c #78736F",
"C+	c #48433F",
"D+	c #222B2D",
"E+	c #0F1213",
"F+	c #1C2425",
"G+	c #9EC7D1",
"H+	c #668188",
"I+	c #271B11",
"J+	c #CC8D5B",
"K+	c #BD9270",
"L+	c #7C746F",
"M+	c #8B7B6F",
"N+	c #383737",
"O+	c #4D6166",
"P+	c #A5D0DA",
"Q+	c #111617",
"R+	c #181E20",
"S+	c #232C2E",
"T+	c #739098",
"U+	c #45575C",
"V+	c #A9754B",
"W+	c #F6AD71",
"X+	c #82766C",
"Y+	c #0C0C0C",
"Z+	c #AE8B70",
"`+	c #F7AB6E",
" @	c #4B3B2E",
".@	c #171C1D",
"+@	c #96BCC6",
"@@	c #2E3A3D",
"#@	c #6E8B92",
"$@	c #334044",
"%@	c #3A484C",
"&@	c #678288",
"*@	c #765234",
"=@	c #7F766F",
"-@	c #4F4E4D",
";@	c #736D68",
">@	c #979595",
",@	c #817771",
"'@	c #847C76",
")@	c #777574",
"!@	c #D19B71",
"~@	c #BD8354",
"{@	c #1F2729",
"]@	c #A3CDD8",
"^@	c #3B4B4F",
"/@	c #342417",
"(@	c #506469",
"_@	c #212A2C",
":@	c #81664F",
"<@	c #AAD6E0",
"[@	c #372618",
"}@	c #DCA171",
"|@	c #B68F70",
"1@	c #111111",
"2@	c #4C4C4C",
"3@	c #8F8C8B",
"4@	c #EBA871",
"5@	c #FDAF71",
"6@	c #785335",
"7@	c #435458",
"8@	c #82A3AB",
"9@	c #010100",
"0@	c #161615",
"a@	c #81A2AB",
"b@	c #A5CFDA",
"c@	c #191917",
"d@	c #A17D60",
"e@	c #161B1C",
"f@	c #A9D5E0",
"g@	c #1B1C1B",
"h@	c #CB9569",
"i@	c #877C74",
"j@	c #D0905D",
"k@	c #13181A",
"l@	c #94BAC3",
"m@	c #A7D2DD",
"n@	c #232D2F",
"o@	c #765336",
"p@	c #2A3335",
"q@	c #91B6C0",
"r@	c #382719",
"s@	c #A07A5C",
"t@	c #1D2527",
"u@	c #3A494D",
"v@	c #967052",
"w@	c #F3A86C",
"x@	c #2D1F14",
"y@	c #323F43",
"z@	c #658086",
"A@	c #A37754",
"B@	c #242D2F",
"C@	c #77969E",
"D@	c #68482E",
"E@	c #B38D6F",
"F@	c #535352",
"G@	c #647E85",
"H@	c #554335",
"I@	c #8C7C6F",
"J@	c #AA8970",
"K@	c #F1AA71",
"L@	c #E5A571",
"M@	c #A6866C",
"N@	c #684A32",
"O@	c #070403",
"P@	c #131718",
"Q@	c #564232",
"R@	c #47595E",
"S@	c #53696E",
"T@	c #966843",
"U@	c #B48E70",
"V@	c #4A5E62",
"W@	c #8EB3BC",
"X@	c #8E8D8C",
"Y@	c #D59D71",
"Z@	c #61605F",
"`@	c #93B9C2",
" #	c #757575",
".#	c #8F8D8D",
"+#	c #36291E",
"@#	c #BC8254",
"##	c #949393",
"$#	c #020303",
"%#	c #6B6969",
"&#	c #999897",
"*#	c #141515",
"=#	c #92B8C1",
"-#	c #85A7B0",
";#	c #252626",
">#	c #9B9A99",
",#	c #1E2121",
"'#	c #E7A067",
")#	c #0D0F10",
"!#	c #3C4B4F",
"~#	c #51504F",
"{#	c #554334",
"]#	c #161B1D",
"^#	c #212222",
"/#	c #6A6969",
"(#	c #283335",
"_#	c #9BC2CC",
":#	c #A2CCD6",
"<#	c #1B1611",
"[#	c #708D94",
"}#	c #CA9469",
"|#	c #AA7C57",
"1#	c #A09F9E",
"2#	c #818080",
"3#	c #5A7278",
"4#	c #543A25",
"5#	c #3B4B4E",
"6#	c #88ACB5",
"7#	c #121314",
"8#	c #6E6C6B",
"9#	c #A19F9F",
"0#	c #9D9B9B",
"a#	c #423428",
"b#	c #20201F",
"c#	c #AF8766",
"d#	c #60605F",
"e#	c #0A0806",
"f#	c #755943",
"g#	c #9D9C9B",
"h#	c #D79B6B",
"i#	c #D49561",
"j#	c #6F6D6C",
"k#	c #B99170",
"l#	c #D1986A",
"m#	c #F7AD71",
"n#	c #927F6F",
"o#	c #656565",
"p#	c #E1A371",
"q#	c #AC8B70",
"r#	c #868483",
"s#	c #CF9B70",
"t#	c #B1B0B0",
"u#	c #757372",
"v#	c #474545",
"w#	c #917E6E",
"x#	c #D49D71",
"y#	c #625F5E",
"z#	c #0A0A0A",
"A#	c #8B8682",
"B#	c #8B8784",
"C#	c #979593",
"D#	c #817B75",
"E#	c #B7B6B5",
"F#	c #827972",
"G#	c #8C8988",
"H#	c #B3B1B1",
"I#	c #989796",
"J#	c #969594",
"                    .                 .                               ",
"              + @ # $ %         & * = - ; >       , ' ) ! ~           ",
"            { ] ^ / ( _ :     < [ ^ } | 1 2     3 4 ^ 5 6 7 8         ",
"            9 ^ ^ ^ 0 a 2     b ^ ^ ^ c d e f   g ^ ^ ^ h i 2         ",
"            4 ^ ^ ^ j k 2     l ^ ^ ^ ^ m n o   p ^ ^ ^ ^ q 2         ",
"            r ^ ^ ^ s t u     9 v w x y z A     B ^ ^ ^ C D ;         ",
"            E F G C H I       J K L M N O P     Q R ^ S T U V         ",
"            & W X Y Z $ `  .  ..+.@.Y #.$.%.  &.*.=.-.Y ;.>.&.,.'.    ",
"        ).!.~.~.~.~.~.{.].^./.(.r r r r _.:.<.r r r r r r r r [.}.2 |.",
"      1.C ^ ^ ^ ^ ^ ^ ^ 2.3.4.5.^ ^ ^ ^ 6.7.8.9.^ ^ ^ ^ ^ 0.^ c a.b.c.",
"      d.e.^ ^ ^ ^ ^ ^ ^ ^ d.f.g.h.i.j.k.l.m.n.o.^ ^ ^ ^ ^ 0.^ ^ B p.c.",
"    q.r.^ ^ ^ ^ ^ ^ ^ ^ ^ s.t.u.2 v.w.x.y.z.A.B.C.^ ^ ^ ^ D.E.^ B p.c.",
"    F.G.H.I.H.^ ^ ^ S I.J.K.L.M.N.O.P.Q.R.S.T.U.V.^ ^ ^ ^ W.X.^ B p.c.",
"    6 ^ Y.Z.`.^ ^ ^  +Z..+++@+#+$+%+&+*+=+-+;+>+,+'+^ ^ ^ W.X.^ B p.c.",
"    X.)+!+@.^ ^ ^ ^ ^ @.~+{+]+^+/+(+_+:+<+[+}+_+|+1+^ ^ ^ W.X.^ B p.c.",
"  2+3+4+5+6+0.0.0.0.0.6+7+8+9+0+a+&+&+&+b+c+&+&+d+e+0.0.0.W.X.0.B p.c.",
"  & C.[ f+g+0.0.0.0.0.g+h+i+j+(+k+&+&+&+&+&+&+&+l+m+0.0.0.W.X.0.B p.c.",
"  n+0.o+f+p+0.0.0.0.0.p+q+r+-+s+t+u+&+&+&+&+&+&+v+w+0.0.0.W.X.0.B p.c.",
"  x+0.y+z+A+0.0.0.0.0.J.B+C+D+E+D+F+G+&+&+&+&+H+I+J+0.0.0.W.X.0.B p.c.",
"  K+c L+M+0.0.0.0.0.0.0.M+N+O+P+Q+R+/+S+T+l+&+U+V+0.0.0.0.W.!+W+X+Y+  ",
"  d.h f+Z+0.0.0.0.0.0.`+ @.@^++@[+@@#@$@v.%@&+&@*@F =@K+0.W.-@;@>@    ",
"  ,@'@)@!@0.0.0.0.0.0.~@{@]@&+^@/@(@&+_@:@R+<@0+[@}@f+|@0.W.1@2@      ",
"      3@4@0.0.0.0.0.5@6@7@&+8@9@0@a@b@c@d@e@f@&+g@h@f+|@0.W.1@2@      ",
"      i@0.0.0.0.0.0.j@k@l@m@n@o@p@&+q@r@s@t@^+&+u@v@f+|@0.W.1@2@      ",
"      {.0.0.0.0.0.w@x@y@&+z@U A@B@&+C@D@E@F@7@&+G@H@f+|@0.W.1@2@      ",
"      I@J@J@K@L@M@N@O@f@]@P@=.Q@R@&+S@T@U@,.V@&+W@_ f+|@0.W.1@2@      ",
"          X@] Y@Z@9+`@&+N. #.#+#O+&+:+@#U@##$#>+f@P@%#|@0.W.1@2@      ",
"          &#] Y@f+*#=#-#;#  >#8 |+&+,#'#U@  )#Q.&+!#~#|@0.W.1@2@      ",
"          &#] Y@Z.{#]#^#    /#(#_#:#<#^ U@  c.[#_+U+;.|@^ W.1@2@      ",
"          &#] Y@f+}#|#1#    2#S+m@3#4#0.U@   #5#6#7#8#|@0.W.1@2@      ",
"          &#] Y@f+}@j 9#    0#a#]#b#c#0.U@    d#e#f#f+|@0.W.1@2@      ",
"          &#] Y@f+}@j 9#    g#h#i#j#k#0.U@    1#l#}@f+|@0.W.1@2@      ",
"          &#] Y@f+}@j 9#    g#I.m#f+k#0.U@    1#j }@f+|@0.W.1@2@      ",
"          &#] Y@f+}@j 9#    g#I.m#f+k#0.U@    1#j }@f+|@0.n#1@o#      ",
"          0#p#q#r#4 s#t#    1#p+C u#|@0.g     t#d.k#v#w#x#y#z#        ",
"            A#B#  C#D#        3.6+E#F#|@G#      H#I#    J#            "};
