/* XPM */
static char * open_folder_xpm[] = {
"18 15 23 1",
" 	c None",
".	c #000000",
"+	c #0B0B0B",
"@	c #A39D64",
"#	c #BAB670",
"$	c #131313",
"%	c #8C8659",
"&	c #D1CE7B",
"*	c #E7E587",
"=	c #FEFE94",
"-	c #FFFF94",
";	c #FFEE94",
">	c #FFE694",
",	c #79714F",
"'	c #FFF694",
")	c #FFDE94",
"!	c #FFD694",
"~	c #948D5D",
"{	c #BEB972",
"]	c #FFCE94",
"^	c #D8D580",
"/	c #EBEA8A",
"(	c #D8D680",
"           ..     ",
"        +..@#.    ",
" ..  .$.%@#&*=-...",
".%%..%%@#&*=-..;>.",
".,%%%@#&*=-..';>).",
" .,@#&*=-..-';>)!.",
" .~{*=-..--';>)!].",
"  .^/-.---';>)!]].",
"  .((/.--';>)!]]].",
"   .((.-';>)!]]]].",
"   .((.';>)!]]].. ",
"    .(.;>)!]]..   ",
"    .(.>)!]..     ",
"     ..)!..       ",
"      ...         "};
