/* XPM */
static char * openfile_xpm[] = {
"24 24 292 2",
"  	c None",
". 	c #342E26",
"+ 	c #41392E",
"@ 	c #3C3225",
"# 	c #806F57",
"$ 	c #FEDEAC",
"% 	c #DEBE8D",
"& 	c #806D50",
"* 	c #342C21",
"= 	c #7F6A4D",
"- 	c #FED59A",
"; 	c #6F5B42",
"> 	c #FEC98A",
", 	c #CFA573",
"' 	c #997F5A",
") 	c #020204",
"! 	c #282827",
"~ 	c #7F5C3A",
"{ 	c #402E1D",
"] 	c #C3BE84",
"^ 	c #3C3A29",
"/ 	c #9E7A50",
"( 	c #CEA371",
"_ 	c #FECB8D",
": 	c #7F6843",
"< 	c #4D4128",
"[ 	c #413628",
"} 	c #2D2D2D",
"| 	c #8F8F90",
"1 	c #666667",
"2 	c #000000",
"3 	c #644224",
"4 	c #322112",
"5 	c #E1D27F",
"6 	c #EFE698",
"7 	c #969266",
"8 	c #7A6F4D",
"9 	c #7F6242",
"0 	c #DEAC74",
"a 	c #DEB47E",
"b 	c #806B4E",
"c 	c #DEBE8A",
"d 	c #FED89C",
"e 	c #BFA478",
"f 	c #363636",
"g 	c #DEDEDF",
"h 	c #E5E5E4",
"i 	c #A0A09F",
"j 	c #7D7672",
"k 	c #33302F",
"l 	c #5A5026",
"m 	c #DFCA6B",
"n 	c #F2E58E",
"o 	c #E1DB99",
"p 	c #B4AF7A",
"q 	c #5D5036",
"r 	c #6F563A",
"s 	c #FEC889",
"t 	c #FECF92",
"u 	c #FEDEA4",
"v 	c #FEDCA1",
"w 	c #BFA579",
"x 	c #6E5B42",
"y 	c #303031",
"z 	c #CCCCCD",
"A 	c #FCFCFC",
"B 	c #F2F2F0",
"C 	c #E7E7E5",
"D 	c #DBDBDA",
"E 	c #646465",
"F 	c #635D4B",
"G 	c #97884C",
"H 	c #E1D172",
"I 	c #EEE491",
"J 	c #F0EAA0",
"K 	c #C4C086",
"L 	c #FED096",
"M 	c #FED9A0",
"N 	c #FEDEA5",
"O 	c #9F8A66",
"P 	c #747474",
"Q 	c #F8F8F8",
"R 	c #FDFDFD",
"S 	c #F9F9F8",
"T 	c #F3F3F2",
"U 	c #D2D2D2",
"V 	c #A9A9AA",
"W 	c #3D3D3F",
"X 	c #A69247",
"Y 	c #DCC766",
"Z 	c #EFDE7E",
"` 	c #F3E894",
" .	c #F3E897",
"..	c #979263",
"+.	c #DEAC75",
"@.	c #FED69F",
"#.	c #FEDBA4",
"$.	c #41372B",
"%.	c #6B6B6C",
"&.	c #F3F3F4",
"*.	c #FBFBFA",
"=.	c #F7F7F5",
"-.	c #EBEBEB",
";.	c #D8D8D9",
">.	c #989898",
",.	c #555144",
"'.	c #75693F",
").	c #C4AC51",
"!.	c #BDA857",
"~.	c #80764D",
"{.	c #D0BC69",
"].	c #E8DE8E",
"^.	c #FEC485",
"/.	c #FED59D",
"(.	c #41382C",
"_.	c #575757",
":.	c #E1E1E1",
"<.	c #F5F5F3",
"[.	c #F1F1EF",
"}.	c #E3E3E3",
"|.	c #D1D1D2",
"1.	c #C8C8C9",
"2.	c #919192",
"3.	c #585859",
"4.	c #797057",
"5.	c #78797F",
"6.	c #4F4F50",
"7.	c #847542",
"8.	c #DFCA6C",
"9.	c #EEE496",
"0.	c #403323",
"a.	c #FED298",
"b.	c #AEAEAE",
"c.	c #F7F7F4",
"d.	c #F0F0EE",
"e.	c #ECECEA",
"f.	c #E7E7E4",
"g.	c #E2E2E1",
"h.	c #D9D9D7",
"i.	c #CBCBCC",
"j.	c #C0C0BF",
"k.	c #8D8D8D",
"l.	c #B9B9B8",
"m.	c #AAAAAA",
"n.	c #5B5A55",
"o.	c #998849",
"p.	c #E8DA83",
"q.	c #3F3121",
"r.	c #FECF94",
"s.	c #A0A0A2",
"t.	c #F4F4F1",
"u.	c #EBEBEA",
"v.	c #E8E8E6",
"w.	c #E2E2E0",
"x.	c #DEDEDD",
"y.	c #D7D7D5",
"z.	c #D1D1CF",
"A.	c #CDCDCC",
"B.	c #C8C8C6",
"C.	c #C2C2C0",
"D.	c #BABAB9",
"E.	c #ADADAE",
"F.	c #7F7F7F",
"G.	c #62593B",
"H.	c #DAC566",
"I.	c #3F301F",
"J.	c #FECC90",
"K.	c #79797A",
"L.	c #EDEDEC",
"M.	c #DCDCDC",
"N.	c #D8D8D5",
"O.	c #D4D4D2",
"P.	c #CCCCCA",
"Q.	c #C7C7C5",
"R.	c #B6B6B4",
"S.	c #AEAEAB",
"T.	c #828284",
"U.	c #585038",
"V.	c #D2B958",
"W.	c #40301F",
"X.	c #FEC888",
"Y.	c #000001",
"Z.	c #DEDEDE",
"`.	c #D3D3D1",
" +	c #CDCDCB",
".+	c #C8C8C5",
"++	c #C3C3C1",
"@+	c #BDBDBB",
"#+	c #B8B8B4",
"$+	c #B4B4B1",
"%+	c #ADADAA",
"&+	c #8A8B8D",
"*+	c #5A554B",
"=+	c #9A8847",
"-+	c #010102",
";+	c #D4D4D3",
">+	c #D9D9D8",
",+	c #BDBDBC",
"'+	c #B9B9B7",
")+	c #B4B4B3",
"!+	c #AEAEAC",
"~+	c #A9A9A7",
"{+	c #959597",
"]+	c #5E5E61",
"^+	c #6C5F3A",
"/+	c #010103",
"(+	c #919193",
"_+	c #C5C5C4",
":+	c #CBCBC8",
"<+	c #BCBCBB",
"[+	c #B7B7B5",
"}+	c #ADADAB",
"|+	c #A8A8A6",
"1+	c #A5A5A2",
"2+	c #939392",
"3+	c #5F5F61",
"4+	c #402F1E",
"5+	c #FEC382",
"6+	c #413426",
"7+	c #101011",
"8+	c #494949",
"9+	c #5C5C5C",
"0+	c #B6B6B6",
"a+	c #BCBCBA",
"b+	c #BCBCBC",
"c+	c #B8B8B7",
"d+	c #B4B4B2",
"e+	c #A6A6A3",
"f+	c #A1A19F",
"g+	c #929292",
"h+	c #717174",
"i+	c #595341",
"j+	c #3F2D1B",
"k+	c #FEBD78",
"l+	c #413224",
"m+	c #323232",
"n+	c #767675",
"o+	c #A9A9A8",
"p+	c #ADADAD",
"q+	c #ACACAB",
"r+	c #A4A4A2",
"s+	c #9B9B9A",
"t+	c #949491",
"u+	c #898988",
"v+	c #474749",
"w+	c #3F2E1B",
"x+	c #FEBA74",
"y+	c #413122",
"z+	c #1F1F20",
"A+	c #6F6F71",
"B+	c #88888A",
"C+	c #9F9F9F",
"D+	c #9D9D9D",
"E+	c #9C9C9C",
"F+	c #989896",
"G+	c #969693",
"H+	c #8A8A89",
"I+	c #474748",
"J+	c #402A17",
"K+	c #FEB36A",
"L+	c #413021",
"M+	c #2E2E2F",
"N+	c #525253",
"O+	c #8F8F8E",
"P+	c #969694",
"Q+	c #8C8C8C",
"R+	c #606060",
"S+	c #4E3A28",
"T+	c #F6AA60",
"U+	c #412F1E",
"V+	c #29292A",
"W+	c #5C5C5B",
"X+	c #878784",
"Y+	c #8C8C89",
"Z+	c #8B8B8B",
"`+	c #7A7A79",
" @	c #5D4A3A",
".@	c #EEA056",
"+@	c #412D1B",
"@@	c #727272",
"#@	c #787877",
"$@	c #4A3D34",
"%@	c #C48146",
"&@	c #3F2B19",
"*@	c #070708",
"=@	c #2F2F31",
"-@	c #474746",
";@	c #4F4035",
">@	c #A66B3A",
",@	c #302013",
"'@	c #16120F",
")@	c #271910",
"        . + @                                   ",
"        # $ % & *                               ",
"        = - ; > , ' )                           ",
"  !     ~ { ] ^ / ( _ : <   @ [ *               ",
"} | 1 2 3 4 5 6 7 8 9 0 a b c d e b )           ",
"f g h i j k l m n o p q r s t u u v w x         ",
"y z A B C D E F G H I J K ^ / ( L M N O         ",
"  P Q R S T U V W X Y Z `  ...8 9 +.@.#.$.      ",
"  %.&.R *.=.-.;.>.,.'.).!.~.{.].p q ^./.(.      ",
"  _.:.*.<.[.-.}.|.1.2.3.4.5.6.7.8.9.0.a.(.      ",
"  2 b.c.d.e.f.g.h.U i.j.k.l.m.n.o.p.q.r.(.      ",
"  2 s.t.u.v.w.x.y.z.A.B.C.D.E.F.G.H.I.J.(.      ",
"    K.L.v.w.M.N.O.P.Q.C.D.R.S.T.U.V.W.X.[       ",
"    Y.Z.g.x.N.`. +.+++@+#+$+%+&+*+=+I.X.[       ",
"    -+;+M.>+O.A.B.C.,+'+)+!+~+{+]+^+I.X.[       ",
"    /+(+E._+:+Q.C.<+[+)+}+|+1+2+3+^+4+5+6+      ",
"      7+8+9+0+a+b+c+d+!+|+e+f+g+h+i+j+k+l+      ",
"            m+n+o+p+q+o+r+i s+t+u+v+w+x+y+      ",
"                z+A+B+C+D+E+F+G+H+I+J+K+L+      ",
"                  -+M+N+O+g+G+P+Q+R+S+T+U+      ",
"                        V+W+X+Y+Z+`+ @.@+@) )   ",
"                            Y.W+@@#@$@%@&@) ) ) ",
"                              *@=@-@;@>@,@) )   ",
"                                    '@)@        "};
