/* XPM */
static char * smartcard_xpm[] = {
"24 24 5 1",
" 	c None",
".	c #FFFFFF",
"+	c #CDCDCD",
"@	c #FFD700",
"#	c #FF9D00",
"                        ",
"                        ",
"                        ",
"                        ",
"                        ",
"  ....................  ",
"+...................... ",
"+...................... ",
"+...................... ",
"+..@@@#................ ",
"+..#@@@................ ",
"+..@@@#................ ",
"+..#@@@................ ",
"+...................... ",
"+...................... ",
"+...................... ",
"+...................... ",
"+...................... ",
" +....................+ ",
"  ++++++++++++++++++++  ",
"                        ",
"                        ",
"                        ",
"                        "};
