/* XPM */
static char *blue_yellow_key_xpm[] = {
/* columns rows colors chars-per-pixel */
"22 14 39 1",
"  c Gray0",
". c #282929",
"X c Gray17",
"o c Gray19",
"O c #353939",
"+ c #393939",
"@ c #3b3f3f",
"# c #3f4747",
"$ c #47421a",
"% c #554e12",
"& c #514c24",
"* c #555129",
"= c #404949",
"- c #495555",
"; c #555555",
": c #545959",
"> c #5c5f5f",
", c #716c45",
"< c #697171",
"1 c #6e7171",
"2 c Gray44",
"3 c #737575",
"4 c Gray50",
"5 c #aa9c24",
"6 c #aaa67e",
"7 c #ffe935",
"8 c #828484",
"9 c #868e8e",
"0 c #8e8e8e",
"q c #8c9c9c",
"w c Gray61",
"e c #92aaaa",
"r c #9eaaaa",
"t c #aaaaaa",
"y c #b9b9b9",
"u c #bcd5d5",
"i c #d5d5d5",
"p c #daffff",
"a c None",
/* pixels */
"aaaaaaaaaaaat*  *aaaaa",
"aaaaaaaaaaat%7775&taaa",
"aat;;;;;;;; 577777&aaa",
"a6%777777777777% %%0aa",
"a 7777777777777 4%%+aa",
"a,%$% $$%$$57775%5%Xaa",
"aw;;4424;22$777777$3ta",
"aa19rppurpp>$5777%,q@a",
"aa@eee-eep--;$  $;3e=a",
"aawO##XO<#;4:8444rp-oa",
"aaaw40w0y4ia4-ppppe#wa",
"aaaaaaaaaaaaaO#---#4ia",
"aaaaaaaaaaaaaw4XX;4iaa",
"aaaaaaaaaaaaaaatttaaaa"
};
