/* XPM */
static char * brief_xpm[] = {
"24 24 168 2",
"  	c None",
". 	c #A0A3A0",
"+ 	c #626561",
"@ 	c #B0B9AF",
"# 	c #BCC5BA",
"$ 	c #747874",
"% 	c #A1A7A0",
"& 	c #DDE8DB",
"* 	c #C3CCC2",
"= 	c #A2A4A1",
"- 	c #7D807C",
"; 	c #CAD4C9",
"> 	c #B6BEB4",
", 	c #A7ACA6",
"' 	c #8D918D",
") 	c #AAAAAA",
"! 	c #9AA199",
"~ 	c #CFDACD",
"{ 	c #6F746E",
"] 	c #373A37",
"^ 	c #B4BDB2",
"/ 	c #D4DED2",
"( 	c #C7D1C6",
"_ 	c #848983",
": 	c #828782",
"< 	c #9BA29A",
"[ 	c #4D504D",
"} 	c #888B88",
"| 	c #555854",
"1 	c #ADB5AB",
"2 	c #D8E3D6",
"3 	c #9FA59E",
"4 	c #747773",
"5 	c #A7AFA6",
"6 	c #CCD6CB",
"7 	c #7C817B",
"8 	c #252625",
"9 	c #2B2B2B",
"0 	c #676B66",
"a 	c #8E958D",
"b 	c #868C86",
"c 	c #C1CBC0",
"d 	c #494C49",
"e 	c #989E97",
"f 	c #828881",
"g 	c #141514",
"h 	c #363636",
"i 	c #4B4B4B",
"j 	c #474747",
"k 	c #4E514E",
"l 	c #888E87",
"m 	c #AAB3A9",
"n 	c #090A09",
"o 	c #767676",
"p 	c #A1A4A1",
"q 	c #B9C2B8",
"r 	c #646963",
"s 	c #292929",
"t 	c #555555",
"u 	c #151515",
"v 	c #101010",
"w 	c #0E0E0E",
"x 	c #868B85",
"y 	c #CFD9CD",
"z 	c #8A9189",
"A 	c #606260",
"B 	c #9FA69E",
"C 	c #B8C2B7",
"D 	c #787E77",
"E 	c #515351",
"F 	c #4A4B4A",
"G 	c #1D1D1D",
"H 	c #616161",
"I 	c #7F7F7F",
"J 	c #404040",
"K 	c #808080",
"L 	c #8E948E",
"M 	c #828682",
"N 	c #858885",
"O 	c #A6AEA4",
"P 	c #252725",
"Q 	c #343534",
"R 	c #444444",
"S 	c #0C0C0C",
"T 	c #656565",
"U 	c #3B3B3B",
"V 	c #6A6A6A",
"W 	c #333333",
"X 	c #959B94",
"Y 	c #919291",
"Z 	c #646664",
"` 	c #959C94",
" .	c #A9B1A7",
"..	c #4A4A4A",
"+.	c #3D3D3D",
"@.	c #5A5A5A",
"#.	c #5E5E5E",
"$.	c #4E4E4E",
"%.	c #777977",
"&.	c #C2CAC0",
"*.	c #C4CEC2",
"=.	c #828482",
"-.	c #979D96",
";.	c #6D706D",
">.	c #545554",
",.	c #7C7C7C",
"'.	c #636363",
").	c #383838",
"!.	c #686868",
"~.	c #7D7E7D",
"{.	c #C6CEC4",
"].	c #A5ABA4",
"^.	c #8E8E8E",
"/.	c #9EA09E",
"(.	c #B0B8AF",
"_.	c #DBE6D9",
":.	c #D1DBD0",
"<.	c #6F726E",
"[.	c #3E3E3E",
"}.	c #747673",
"|.	c #202020",
"1.	c #969A95",
"2.	c #B3BCB2",
"3.	c #7E7F7E",
"4.	c #CACACA",
"5.	c #717270",
"6.	c #A1A9A0",
"7.	c #C8D2C6",
"8.	c #969996",
"9.	c #9EA29E",
"0.	c #636562",
"a.	c #505050",
"b.	c #515151",
"c.	c #BEC7BD",
"d.	c #AFAFAF",
"e.	c #797A79",
"f.	c #646763",
"g.	c #999F98",
"h.	c #414141",
"i.	c #6A6B6A",
"j.	c #CBD4C9",
"k.	c #9EA59D",
"l.	c #878887",
"m.	c #BBBBBB",
"n.	c #989898",
"o.	c #6B6D6B",
"p.	c #7F847E",
"q.	c #D7E1D5",
"r.	c #9FA49E",
"s.	c #BEC5BD",
"t.	c #D9E4D7",
"u.	c #989C97",
"v.	c #9F9F9F",
"w.	c #737373",
"x.	c #929991",
"y.	c #C5CFC3",
"z.	c #9DA49C",
"A.	c #868686",
"B.	c #7C7D7C",
"C.	c #696C68",
"D.	c #A2A9A1",
"E.	c #5C5E5C",
"F.	c #959595",
"G.	c #7D7F7D",
"H.	c #6B6F6A",
"I.	c #8C938B",
"J.	c #797979",
"K.	c #C4C4C4",
"                                                ",
"                      .                         ",
"                    + @ # $                     ",
"                    % & & & * =                 ",
"                  - ; & & & & > , '             ",
"                ) ! & & ~ { ] ^ / ( _           ",
"                : & & ~ < [ } | 1 & 2 3         ",
"              4 5 & 6 7 8 9 0 a b & c d         ",
"              e 2 & f g h i j k l & m n o       ",
"            p c & q r s t u v w x & y z A       ",
"            B C D E F G H I J K L & & ; M       ",
"          N O P Q R S T U V t W X & & 5 Y       ",
"        Z `  .9 ..+.@.t U #.$.%.&.& *.=.        ",
"        -./ * ;.>.t ,.'.).!.~.{.& & ].^.        ",
"      /.(.& _.:.<...[.}.|.j 1.& & 2.3.4.        ",
"      5.6.7.& & & 8.9.0.a.b.c.& / 7 )           ",
"      d.e.f.O & & & & g.h.i.j.& k.l.            ",
"        m.n.o.p.y & & q.r.s.t.y u.              ",
"            v.w.i x.y.2 & & & z.A.              ",
"                ) B.C.D.& & c E.                ",
"                    F.G.H.c I.F.                ",
"                      ) J.t !.                  ",
"                          ) K.                  ",
"                                                "};
