/* XPM */
static char * detailed_xpm[] = {
"24 24 128 2",
"  	c None",
". 	c #555555",
"+ 	c #333333",
"@ 	c #101010",
"# 	c #050505",
"$ 	c #151515",
"% 	c #0E0E0D",
"& 	c #121312",
"* 	c #404040",
"= 	c #000000",
"- 	c #202020",
"; 	c #5D605C",
"> 	c #939A92",
", 	c #787E77",
"' 	c #1B1D1B",
") 	c #222222",
"! 	c #4C4F4C",
"~ 	c #ABB3AA",
"{ 	c #DDE8DB",
"] 	c #B3BCB2",
"^ 	c #535752",
"/ 	c #A1A7A0",
"( 	c #D8E3D6",
"_ 	c #C1CBC0",
": 	c #5A5D59",
"< 	c #464846",
"[ 	c #3D3D3D",
"} 	c #1C1C1C",
"| 	c #8E908D",
"1 	c #CAD4C9",
"2 	c #8D938B",
"3 	c #616460",
"4 	c #343434",
"5 	c #777777",
"6 	c #8E8E8E",
"7 	c #313131",
"8 	c #9AA199",
"9 	c #A6AEA4",
"0 	c #454844",
"a 	c #242423",
"b 	c #747574",
"c 	c #484848",
"d 	c #0B0B0B",
"e 	c #5B5F5B",
"f 	c #6F746E",
"g 	c #909090",
"h 	c #444444",
"i 	c #383838",
"j 	c #4D4D4D",
"k 	c #969696",
"l 	c #626262",
"m 	c #2B2B2B",
"n 	c #868886",
"o 	c #A7AFA6",
"p 	c #D9E4D7",
"q 	c #717671",
"r 	c #3B3B3B",
"s 	c #303030",
"t 	c #6A6A6A",
"u 	c #232323",
"v 	c #1B1B1B",
"w 	c #252525",
"x 	c #959595",
"y 	c #9A9F9A",
"z 	c #DBE6D9",
"A 	c #A7AEA7",
"B 	c #717171",
"C 	c #666666",
"D 	c #6A6C6A",
"E 	c #232322",
"F 	c #414141",
"G 	c #717370",
"H 	c #252625",
"I 	c #0D0D0D",
"J 	c #676A67",
"K 	c #676B66",
"L 	c #828682",
"M 	c #070707",
"N 	c #040404",
"O 	c #808080",
"P 	c #8A9189",
"Q 	c #CED6CC",
"R 	c #5E5F5D",
"S 	c #4A4A4A",
"T 	c #5A5C5A",
"U 	c #C8D1C6",
"V 	c #797F78",
"W 	c #9DA29D",
"X 	c #636363",
"Y 	c #707270",
"Z 	c #BCC4BB",
"` 	c #232423",
" .	c #393939",
"..	c #AAAAAA",
"+.	c #111111",
"@.	c #9A9A9A",
"#.	c #A8B1A7",
"$.	c #CFD9CD",
"%.	c #2E2F2E",
"&.	c #7A7A7A",
"*.	c #8F8F8F",
"=.	c #505250",
"-.	c #757A75",
";.	c #CBD5C9",
">.	c #424542",
",.	c #AFAFAF",
"'.	c #7F7F7F",
").	c #696969",
"!.	c #5E605E",
"~.	c #929991",
"{.	c #616161",
"].	c #505050",
"^.	c #A1A1A1",
"/.	c #828282",
"(.	c #848484",
"_.	c #676767",
":.	c #5F635F",
"<.	c #99A097",
"[.	c #D4DED2",
"}.	c #949B92",
"|.	c #373A37",
"1.	c #747474",
"2.	c #5C5D5C",
"3.	c #727671",
"4.	c #6E746E",
"5.	c #1E1E1E",
"6.	c #2D2D2D",
"7.	c #090A09",
"                                                ",
"                                                ",
"                    . . . .                     ",
"              + @ # $ % & & # @ +               ",
"            * = - $ . ; > > , ' = *             ",
"          ) @ +     ! ~ { { { ] ^ = )           ",
"        * @ .       / { ( _ : < [ } # *         ",
"      + = +       | 1 { 2 3 4 5 6 7 - = )       ",
"      @ *       . 8 9 0 a b   c - d   @ d       ",
"    . # $       e { f * g h - i j k l # = .     ",
"    m $ .     n o p q r s * c ) . t u v = m     ",
"    = w x     y ( z A B C D E F . h G H = =     ",
"    = I     J _ { { { { p K r   m L 9 M N =     ",
"    = - O   P { { { { { Q R d S T U V m d =     ",
"    * $ . . 9 { { { { { p W X Y Z z `  .M *     ",
"    ..= +.@.i ! #.$.{ { { { { { { { %.* = ..    ",
"      - $ &.*.t =.-.;.{ { { { { { { >.= -       ",
"        - -   ,.'.).!.~.{ { { { { { & -         ",
"        {.d ].5 ^./.(._.:.<.[.[.}.|.d {.        ",
"          {.= $ h t ..@.1.2.3.4.& = {.          ",
"              - @ +.5.6.- - d 7.-               ",
"                . * = +.+.= * .                 ",
"                                                ",
"                                                "};
