/* XPM */
static char * edit_xpm[] = {
"24 24 157 2",
"  	c None",
". 	c #4A4C49",
"+ 	c #515351",
"@ 	c #888888",
"# 	c #2D302C",
"$ 	c #929C8D",
"% 	c #72776F",
"& 	c #5C5C5C",
"* 	c #535751",
"= 	c #A7B2A2",
"- 	c #5B6158",
"; 	c #5B5D5A",
"> 	c #838383",
", 	c #4B4D4A",
"' 	c #5E635C",
") 	c #646764",
"! 	c #B6B6B6",
"~ 	c #7F7F7F",
"{ 	c #474846",
"] 	c #646B61",
"^ 	c #B1BDAC",
"/ 	c #6B7268",
"( 	c #3B3C3B",
"_ 	c #AAAAAA",
": 	c #C0C0C0",
"< 	c #6B6D6B",
"[ 	c #475049",
"} 	c #8E8E8E",
"| 	c #7B7C7C",
"1 	c #4F5951",
"2 	c #3B483D",
"3 	c #687E6C",
"4 	c #606A60",
"5 	c #484D47",
"6 	c #BFCCB9",
"7 	c #A4AF9E",
"8 	c #646962",
"9 	c #7C7C7C",
"0 	c #818281",
"a 	c #9B9B9B",
"b 	c #696C6A",
"c 	c #4A4B4A",
"d 	c #2E3830",
"e 	c #5B705F",
"f 	c #8EAF94",
"g 	c #5A6B5D",
"h 	c #49504B",
"i 	c #7E7E7E",
"j 	c #58635A",
"k 	c #99BC9F",
"l 	c #C6F4CF",
"m 	c #CFFFD8",
"n 	c #C2EAC9",
"o 	c #859988",
"p 	c #575A55",
"q 	c #9BA696",
"r 	c #383B37",
"s 	c #3E423E",
"t 	c #3F4C41",
"u 	c #39423B",
"v 	c #637867",
"w 	c #566A5A",
"x 	c #ACD4B4",
"y 	c #BEEAC6",
"z 	c #A4CAAB",
"A 	c #515552",
"B 	c #868686",
"C 	c #535954",
"D 	c #B3DCBB",
"E 	c #CAF7D3",
"F 	c #899D8D",
"G 	c #393E39",
"H 	c #777F73",
"I 	c #575D54",
"J 	c #333632",
"K 	c #4C5C4F",
"L 	c #C2EFCA",
"M 	c #5D7060",
"N 	c #525553",
"O 	c #7A7A7A",
"P 	c #465249",
"Q 	c #A0C5A7",
"R 	c #C2EFCB",
"S 	c #BBDFC2",
"T 	c #646E66",
"U 	c #3F433E",
"V 	c #2D2F2B",
"W 	c #313932",
"X 	c #76917B",
"Y 	c #85A38A",
"Z 	c #8EAF95",
"` 	c #6E8572",
" .	c #47554A",
"..	c #111512",
"+.	c #505551",
"@.	c #6A6A6A",
"#.	c #3E4A41",
"$.	c #819584",
"%.	c #535553",
"&.	c #68806C",
"*.	c #404640",
"=.	c #3A403B",
"-.	c #202320",
";.	c #0C0D0C",
">.	c #3D413B",
",.	c #121312",
"'.	c #4F5450",
").	c #404C42",
"!.	c #6D756E",
"~.	c #878787",
"{.	c #556859",
"].	c #819F87",
"^.	c #535854",
"/.	c #565956",
"(.	c #262925",
"_.	c #3B3F39",
":.	c #ADB8A7",
"<.	c #4B504A",
"[.	c #515350",
"}.	c #A0A0A0",
"|.	c #323332",
"1.	c #A8CFB0",
"2.	c #677F6C",
"3.	c #8AAA90",
"4.	c #4E5550",
"5.	c #333333",
"6.	c #575A56",
"7.	c #747B70",
"8.	c #CCDBC6",
"9.	c #899284",
"0.	c #444942",
"a.	c #676B65",
"b.	c #808080",
"c.	c #919392",
"d.	c #5C705F",
"e.	c #7A957F",
"f.	c #6D6D6D",
"g.	c #646961",
"h.	c #A4AF9F",
"i.	c #DAE9D3",
"j.	c #969B97",
"k.	c #5A6C5D",
"l.	c #647A68",
"m.	c #58665A",
"n.	c #919291",
"o.	c #5A6057",
"p.	c #80887B",
"q.	c #7A7C78",
"r.	c #434B44",
"s.	c #000000",
"t.	c #38403A",
"u.	c #555555",
"v.	c #585858",
"w.	c #4D514B",
"x.	c #9AA495",
"y.	c #464A44",
"z.	c #747573",
"                                                ",
"                                                ",
"                                                ",
"                                                ",
"      . + @                                     ",
"      # $ % +                                   ",
"      & * = - ;                                 ",
"        > , $ $ ' )                             ",
"        ! ~ { ] ^ / (             _ : < [ }     ",
"      | 1 2 3 4 5 6 7 8 9 0   a b c d e f g h   ",
"    i j k l m n o p $ q r s t u v w x y m z A   ",
"  B C D m m m m E F G H I J K x y L m m m M N   ",
"  O P m y Q R m m m S T U V W X Y Z `  ...+.    ",
"  @.#.y $.%.&.m m m m S *.=.-.;.>.,.'.          ",
"  i ).x !.~.{.m m m m ].^./.(._.6 :.<.[.        ",
"  }.|.1.2.{.].m m m 3.4.    5.6.7.6 8.9.0.a.b.  ",
"    c.d.y m m m m l e.+.      a f.g.h.i.i.H [.  ",
"      j.k.Z m m 1.l.m.            n.o.6 i.p.q.  ",
"          r.s.s.t.u.                v.w.x.y.    ",
"                                      z.f.      ",
"                                                ",
"                                                ",
"                                                ",
"                                                "};
