/* XPM */
static char * encrypt_xpm[] = {
"36 30 287 2",
"  	c None",
". 	c #FCFCFC",
"+ 	c #FEFEFE",
"@ 	c #FDFDFD",
"# 	c #E5E5E5",
"$ 	c #B5B5B5",
"% 	c #A8A8A8",
"& 	c #BEBEBE",
"* 	c #E2E2E2",
"= 	c #FBFBFB",
"- 	c #EFEFEF",
"; 	c #C5C5C5",
"> 	c #939393",
", 	c #555555",
"' 	c #515151",
") 	c #7E7E7E",
"! 	c #CFCFCF",
"~ 	c #BCBCBC",
"{ 	c #6F6F6F",
"] 	c #818181",
"^ 	c #DFDEDE",
"/ 	c #FFFFFF",
"( 	c #F5F5F5",
"_ 	c #D7D7D7",
": 	c #A5A5A5",
"< 	c #676767",
"[ 	c #353535",
"} 	c #090909",
"| 	c #2F2F2F",
"1 	c #D6D6D6",
"2 	c #D3D3D3",
"3 	c #111111",
"4 	c #000000",
"5 	c #3E3E3E",
"6 	c #545454",
"7 	c #CECDCD",
"8 	c #A5A3A3",
"9 	c #858585",
"0 	c #474747",
"a 	c #131313",
"b 	c #242424",
"c 	c #878787",
"d 	c #D5D5D5",
"e 	c #EDEDED",
"f 	c #2D2D2D",
"g 	c #1E1E1E",
"h 	c #BFBEBE",
"i 	c #9A9898",
"j 	c #EBEBEB",
"k 	c #B6B6B6",
"l 	c #848484",
"m 	c #464646",
"n 	c #080808",
"o 	c #272727",
"p 	c #767676",
"q 	c #CCCCCC",
"r 	c #595959",
"s 	c #7F7F7F",
"t 	c #F7F7F7",
"u 	c #161616",
"v 	c #959595",
"w 	c #C8C7C7",
"x 	c #ECECEC",
"y 	c #AEAEAE",
"z 	c #707070",
"A 	c #333333",
"B 	c #010101",
"C 	c #7C7C7C",
"D 	c #CECECE",
"E 	c #F9F9F9",
"F 	c #1A1B1C",
"G 	c #2C383A",
"H 	c #1B2224",
"I 	c #363636",
"J 	c #575757",
"K 	c #A19F9F",
"L 	c #B9B7B7",
"M 	c #E4E4E4",
"N 	c #D1D1D1",
"O 	c #F1F1F1",
"P 	c #404040",
"Q 	c #191F21",
"R 	c #AAD6E1",
"S 	c #69858C",
"T 	c #101010",
"U 	c #A6A5A5",
"V 	c #A4A2A2",
"W 	c #F2F2F2",
"X 	c #F3F3F3",
"Y 	c #D8D8D8",
"Z 	c #5C5C5C",
"` 	c #303030",
" .	c #838383",
"..	c #F8F8F8",
"+.	c #747474",
"@.	c #293336",
"#.	c #A4CFD9",
"$.	c #5B7278",
"%.	c #646464",
"&.	c #8A8888",
"*.	c #9F9D9D",
"=.	c #6A6A6A",
"-.	c #B2B2B2",
";.	c #909090",
">.	c #B0B0B0",
",.	c #FAFAFA",
"'.	c #DFDFDF",
").	c #979797",
"!.	c #273134",
"~.	c #7E9FA7",
"{.	c #739198",
"].	c #212223",
"^.	c #DBDBDB",
"/.	c #5D5C5C",
"(.	c #4D4D4D",
"_.	c #AAAAAA",
":.	c #434343",
"<.	c #6D6D6D",
"[.	c #131515",
"}.	c #3B4A4E",
"|.	c #7B9BA3",
"1.	c #6F8C93",
"2.	c #232424",
"3.	c #B7B7B7",
"4.	c #2D2C2C",
"5.	c #B1B1B1",
"6.	c #2B2B2B",
"7.	c #DEDEDE",
"8.	c #161C1D",
"9.	c #6E8A91",
"0.	c #252626",
"a.	c #DCDCDC",
"b.	c #020202",
"c.	c #969494",
"d.	c #C7C6C6",
"e.	c #E6E6E6",
"f.	c #9D9D9D",
"g.	c #2C2C2C",
"h.	c #0B0D0D",
"i.	c #444444",
"j.	c #323232",
"k.	c #1B1D1E",
"l.	c #7FA0A8",
"m.	c #6B878E",
"n.	c #6F6D6D",
"o.	c #B8B7B7",
"p.	c #4C4C4C",
"q.	c #060708",
"r.	c #51666C",
"s.	c #9EC7D1",
"t.	c #95BCC5",
"u.	c #50656A",
"v.	c #6D8A91",
"w.	c #80A1A9",
"x.	c #69848B",
"y.	c #040404",
"z.	c #D2D2D2",
"A.	c #C9C9C9",
"B.	c #262626",
"C.	c #484747",
"D.	c #AEACAC",
"E.	c #666666",
"F.	c #3B3B3B",
"G.	c #77969E",
"H.	c #5F777D",
"I.	c #5F5F5F",
"J.	c #5B5B5B",
"K.	c #4B4B4B",
"L.	c #414141",
"M.	c #212121",
"N.	c #484848",
"O.	c #1E2526",
"P.	c #98BFC9",
"Q.	c #0F1415",
"R.	c #343434",
"S.	c #030303",
"T.	c #7B7B7B",
"U.	c #7A7A7A",
"V.	c #060606",
"W.	c #8F8D8D",
"X.	c #121212",
"Y.	c #9E9E9E",
"Z.	c #4A5E63",
"`.	c #89ADB5",
" +	c #566C71",
".+	c #83A5AE",
"++	c #93B9C2",
"@+	c #232323",
"#+	c #C0C0C0",
"$+	c #767575",
"%+	c #171717",
"&+	c #C7C7C7",
"*+	c #323F42",
"=+	c #1C2123",
"-+	c #9F9F9F",
";+	c #26292A",
">+	c #9EC6D1",
",+	c #3B4B4E",
"'+	c #ADADAD",
")+	c #575656",
"!+	c #525252",
"~+	c #6B6B6B",
"{+	c #CACACA",
"]+	c #0A0C0C",
"^+	c #9AC2CC",
"/+	c #2A3437",
"(+	c #202729",
"_+	c #AAD5E0",
":+	c #9BC3CD",
"<+	c #1E2121",
"[+	c #1C1C1C",
"}+	c #3F3E3E",
"|+	c #C6C4C4",
"1+	c #888888",
"2+	c #3A3A3A",
"3+	c #344245",
"4+	c #8FB4BE",
"5+	c #74929A",
"6+	c #92B8C2",
"7+	c #A6D1DC",
"8+	c #39484B",
"9+	c #949494",
"0+	c #DADADA",
"a+	c #201F1F",
"b+	c #BBBABA",
"c+	c #868686",
"d+	c #8D8D8D",
"e+	c #1C1F20",
"f+	c #2C383B",
"g+	c #4A5D62",
"h+	c #425357",
"i+	c #1B1F21",
"j+	c #6C6C6C",
"k+	c #C2C2C2",
"l+	c #A3A1A1",
"m+	c #9A9A9A",
"n+	c #E3E3E3",
"o+	c #0D0D0D",
"p+	c #1D1C1C",
"q+	c #424242",
"r+	c #686767",
"s+	c #898787",
"t+	c #A09E9E",
"u+	c #E1E1E1",
"v+	c #1A1A1A",
"w+	c #4F4F4F",
"x+	c #636363",
"y+	c #242323",
"z+	c #4E4D4D",
"A+	c #6D6C6C",
"B+	c #8E8D8D",
"C+	c #B4B4B4",
"D+	c #565656",
"E+	c #070707",
"F+	c #292929",
"G+	c #4C4B4B",
"H+	c #727171",
"I+	c #979696",
"J+	c #9C9A9A",
"K+	c #9B9999",
"L+	c #A7A6A6",
"M+	c #C0BEBE",
"N+	c #585757",
"O+	c #7E7D7D",
"P+	c #9B9A9A",
"Q+	c #181818",
"R+	c #8F8E8E",
"S+	c #B2B1B1",
"T+	c #A2A0A0",
"U+	c #B8B6B6",
"V+	c #6E6E6E",
"W+	c #8E8E8E",
"X+	c #AFAEAE",
"Y+	c #ADABAB",
"Z+	c #BAB8B8",
"`+	c #929292",
" @	c #828282",
".@	c #ABAAAA",
"+@	c #BEBDBD",
"@@	c #B7B5B5",
"#@	c #B5B4B4",
"$@	c #9D9B9B",
"%@	c #B1AFAF",
"&@	c #C9C8C8",
"*@	c #B6B4B4",
"=@	c #BDBCBC",
"-@	c #CCCBCB",
"                                                        .               ",
"                                            + @ # $ % & * =             ",
"                                  + + - ; > , ' ) ! . ~ { ] ^           ",
"                          / ( _ : < [ } | ] 1 . + 2 3 4 5 6 7 8         ",
"                  / / ; 9 0 a 4 4 b c d + + + + e f 4 } 1 g h i         ",
"          / j k l m n 4 4 4 o p q + + + + + + j r 4 4 s t u v i w       ",
"    x y z A n 4 4 4 B o C D . / + + + + + + E F G H I = + o J K L       ",
"  M 5 4 4 4 4 4 f s N / / / / / + + + + + O P Q R S ) + + , T U V       ",
"  W X Y Z `  ._ @ / / / / / / / + + + + ..+.@.#.R $.) + + %.4 &.*.      ",
"  =.-.;.>.,./ / + / / / / / / / + + + '.).!.~.R {.].^.+ + ).4 /.i       ",
"  ) (.= _.:.<.! + / / / / / / / + + # [.}.|.R 1.2.'.+ + + 3.4 4.i       ",
"  -.4 5./ t c u 6.9 7.+ / / / ( + + N 8.R R 9.0.'.+ + + + a.b.} c.d.    ",
"    4 5 / / / e.z b.4 0 f.c g.h.i.j.k.l.R m.o * + + + + + / } 4 n.o.    ",
"    o b.M + + + + d p.4 q.r.s.t.u.v.w.R x.y.$ z.A.+ + + + / B.4 C.D.    ",
"    E.4 % + + + + + + F.G.R R R R R R H.b.I.+ ,.J.K.'.+ + / L.4 M.i     ",
"    : 4 N.+ + + + + # O.R R R R R R P.Q.g X + + e R.S.T.X / U.4 V.W.    ",
"      B X.( + + + + Y.Z.R `. +.+R R ++H ] + + + + e I 4 @+#+C 4 4 $+    ",
"      %+4 ~ + + + + &+*+R =+-+;+>+R R ,+'++ + + + + - | 4 n :.4 4 )+    ",
"      !+4 ~++ + + + {+]+^+/+=.(+_+R :+<+X + + + + + + Y [+4 4 4 4 }+|+  ",
"      1+4 [++ + + = 2+4 3+4+5+6+R 7+8+9++ + + + + + + + 0+3 4 4 4 a+b+  ",
"      &+4 b.0++ + z 4 c+d+e+f+g+h+i+j++ + + + + + W k+l m n 4 4 4 4 l+  ",
"        b.4 m++ y B B n++ X N 5.5.- + + + x y z j.o+4 4 4 S.p+q+r+s+t+  ",
"        F.4 , u+v+4 w++ + + + + ( q m+x+` 4 4 4 4 4 y+z+A+B+i i i i i   ",
"        { 4 @+N.4 4 C+M 5.T.D+b n 4 4 4 4 E+F+G+H+I+J+i i K+K+L+M+      ",
"        y 4 4 4 4 4 u 4 4 4 4 4 4 4 g.N+O+P+*.i i i i l+b+              ",
"          b.4 4 4 4 4 4 4 Q+K.$+R+S+K+i i i i T+U+                      ",
"          @+4 4 V.A V+W+X+Y+t+i i i i K Z+                              ",
"          `+ @.@+@@@K i i i i t+#@                                      ",
"              $@i i i *.%@&@                                            ",
"              *@=@-@                                                    "};
