/* XPM */
static char * encrypt_xpm[] = {
"29 24 292 2",
"  	c None",
". 	c #EBEBEB",
"+ 	c #A6A6A6",
"@ 	c #B9B9B9",
"# 	c #BBBBBB",
"$ 	c #BFBFBF",
"% 	c #C6C6C6",
"& 	c #C2C2C2",
"* 	c #F8F8F8",
"= 	c #D4D4D4",
"- 	c #A4A4A4",
"; 	c #949494",
"> 	c #6F6F6F",
", 	c #6D6D6D",
"' 	c #8F8F8F",
") 	c #ACACAC",
"! 	c #C4C4C4",
"~ 	c #CBCBCB",
"{ 	c #666666",
"] 	c #4E4E4E",
"^ 	c #5F5F5F",
"/ 	c #C1C0C0",
"( 	c #FFFFFF",
"_ 	c #F7F7F7",
": 	c #B0B0B0",
"< 	c #767676",
"[ 	c #4C4C4C",
"} 	c #2C2C2C",
"| 	c #262626",
"1 	c #545454",
"2 	c #9C9C9C",
"3 	c #D1D1D1",
"4 	c #EAEAEA",
"5 	c #FAFAFA",
"6 	c #F5F5F5",
"7 	c #616161",
"8 	c #040404",
"9 	c #565656",
"0 	c #5C5C5C",
"a 	c #A7A7A7",
"b 	c #9C9A9A",
"c 	c #AEAEAE",
"d 	c #7B7B7B",
"e 	c #444444",
"f 	c #0A0A0A",
"g 	c #0D0D0D",
"h 	c #212121",
"i 	c #464646",
"j 	c #E2E2E2",
"k 	c #FEFEFE",
"l 	c #E1E1E1",
"m 	c #767778",
"n 	c #101212",
"o 	c #2E2E2E",
"p 	c #C3C3C3",
"q 	c #6A6A6A",
"r 	c #777777",
"s 	c #A5A3A3",
"t 	c #C5C4C4",
"u 	c #BEBEBE",
"v 	c #828282",
"w 	c #4B4B4B",
"x 	c #1B1B1B",
"y 	c #030303",
"z 	c #2B2B2B",
"A 	c #585858",
"B 	c #8E8E8E",
"C 	c #CACACA",
"D 	c #F6F6F6",
"E 	c #E4E4E4",
"F 	c #686A6B",
"G 	c #47595D",
"H 	c #415054",
"I 	c #7D7D7D",
"J 	c #FDFDFD",
"K 	c #808080",
"L 	c #3D3D3D",
"M 	c #A6A4A4",
"N 	c #B1AFAF",
"O 	c #D3D3D3",
"P 	c #939393",
"Q 	c #484848",
"R 	c #989898",
"S 	c #EDEDED",
"T 	c #F4F4F4",
"U 	c #868888",
"V 	c #4E5E62",
"W 	c #95BCC6",
"X 	c #6C878D",
"Y 	c #9E9E9E",
"Z 	c #191919",
"` 	c #989696",
" .	c #A19F9F",
"..	c #9F9F9F",
"+.	c #ECECEC",
"@.	c #FBFBFB",
"#.	c #A7A8A8",
"$.	c #465357",
"%.	c #89ADB6",
"&.	c #8CB1BA",
"*.	c #41494C",
"=.	c #D6D6D6",
"-.	c #B6B6B6",
";.	c #1A1A1A",
">.	c #727070",
",.	c #9B9999",
"'.	c #6B6B6B",
").	c #A3A3A3",
"!.	c #868686",
"~.	c #C1C1C1",
"{.	c #F0F0F0",
"].	c #525454",
"^.	c #4F6368",
"/.	c #8CB0B9",
"(.	c #81A1A9",
"_.	c #50595B",
":.	c #D5D5D5",
"<.	c #3F3E3E",
"[.	c #9F9D9D",
"}.	c #E3E3E3",
"|.	c #EFEFEF",
"1.	c #9B9B9B",
"2.	c #898989",
"3.	c #C0C0C0",
"4.	c #B5B5B5",
"5.	c #9C9D9D",
"6.	c #B1B1B1",
"7.	c #9A9B9B",
"8.	c #566265",
"9.	c #9CC5CF",
"0.	c #7F9FA7",
"a.	c #60696C",
"b.	c #C2C3C3",
"c.	c #F1F1F1",
"d.	c #222222",
"e.	c #DADADA",
"f.	c #929292",
"g.	c #303030",
"h.	c #292929",
"i.	c #565C5F",
"j.	c #6E8388",
"k.	c #5D7479",
"l.	c #4E5C60",
"m.	c #566A6E",
"n.	c #85A7AF",
"o.	c #7E9FA7",
"p.	c #434B4D",
"q.	c #A8A8A8",
"r.	c #DCDCDC",
"s.	c #404040",
"t.	c #131313",
"u.	c #7D7C7C",
"v.	c #252525",
"w.	c #8C8C8C",
"x.	c #FCFCFC",
"y.	c #40484A",
"z.	c #7E9EA7",
"A.	c #A3CED8",
"B.	c #A4CFDA",
"C.	c #9AC2CC",
"D.	c #A0C9D3",
"E.	c #7E9EA6",
"F.	c #252C2E",
"G.	c #7A7A7A",
"H.	c #5B5B5B",
"I.	c #090909",
"J.	c #5A5959",
"K.	c #3C3C3C",
"L.	c #C1C2C2",
"M.	c #53686C",
"N.	c #A7D2DC",
"O.	c #9CC4CE",
"P.	c #A2CCD7",
"Q.	c #AAD6E1",
"R.	c #A0CAD4",
"S.	c #3A4A4E",
"T.	c #3E3F3F",
"U.	c #909090",
"V.	c #8B8B8B",
"W.	c #010101",
"X.	c #0B0B0B",
"Y.	c #DEDEDE",
"Z.	c #A4A6A7",
"`.	c #647E84",
" +	c #82A3AB",
".+	c #6D7D81",
"++	c #687F85",
"@+	c #A7D2DD",
"#+	c #A3CDD8",
"$+	c #4B5F64",
"%+	c #909191",
"&+	c #656565",
"*+	c #141414",
"=+	c #535353",
"-+	c #000000",
";+	c #3A3A3A",
">+	c #B3B4B5",
",+	c #5F777D",
"'+	c #666869",
")+	c #394244",
"!+	c #A7D1DC",
"~+	c #A6D0DB",
"{+	c #4E6065",
"]+	c #C7C8C8",
"^+	c #DFDFDF",
"/+	c #5A5A5A",
"(+	c #080808",
"_+	c #161616",
":+	c #1E1E1E",
"<+	c #858484",
"[+	c #1C1C1C",
"}+	c #192022",
"|+	c #637D83",
"1+	c #748F96",
"2+	c #80A0A9",
"3+	c #A9D5E0",
"4+	c #7A99A1",
"5+	c #6E7476",
"6+	c #EEEEEE",
"7+	c #D9D9D9",
"8+	c #4A4A4A",
"9+	c #020202",
"0+	c #101010",
"a+	c #828181",
"b+	c #242424",
"c+	c #7F7F7F",
"d+	c #737474",
"e+	c #4B5355",
"f+	c #5C6B6F",
"g+	c #525D60",
"h+	c #67696A",
"i+	c #E8E8E8",
"j+	c #060606",
"k+	c #0F0F0F",
"l+	c #181717",
"m+	c #6E6D6D",
"n+	c #1D1D1D",
"o+	c #3B3B3B",
"p+	c #F3F3F3",
"q+	c #E9E9E9",
"r+	c #C7C7C7",
"s+	c #ABABAB",
"t+	c #838383",
"u+	c #575757",
"v+	c #2A2A2A",
"w+	c #131212",
"x+	c #252424",
"y+	c #353535",
"z+	c #4C4B4B",
"A+	c #6A6969",
"B+	c #848383",
"C+	c #0C0C0C",
"D+	c #414141",
"E+	c #606060",
"F+	c #232222",
"G+	c #3D3C3C",
"H+	c #706E6E",
"I+	c #818080",
"J+	c #918F8F",
"K+	c #9A9898",
"L+	c #A5A4A4",
"M+	c #ACAAAA",
"N+	c #A1A1A1",
"O+	c #323232",
"P+	c #070707",
"Q+	c #121212",
"R+	c #3C3B3B",
"S+	c #636363",
"T+	c #807F7F",
"U+	c #898787",
"V+	c #8F8E8E",
"W+	c #989797",
"X+	c #AAA8A8",
"Y+	c #1F1F1F",
"Z+	c #2D2D2D",
"`+	c #515151",
" @	c #9A9999",
".@	c #A4A2A2",
"+@	c #9E9C9C",
"@@	c #4B4A4A",
"#@	c #626161",
"$@	c #838282",
"%@	c #999898",
"&@	c #A09E9E",
"*@	c #9D9B9B",
"=@	c #A3A1A1",
"-@	c #B7B5B5",
";@	c #959494",
">@	c #AFAEAE",
",@	c #A8A6A6",
"'@	c #B4B2B2",
")@	c #BFBEBE",
"                                            .             ",
"                                  + @ # $ % @ &           ",
"                      * = - ; > , ' ) ! ~ { ] ^ /         ",
"              ( _ : < [ } | 1 2 3 4 5 6 7 8 9 0 a b       ",
"        3 c d e f g h i ; j k k k k l m n o p q r s t     ",
"  u v w x y f z A B C D ( k k k k E F G H I J K L M N     ",
"  O P Q | 7 R p S ( ( ( ( k k k T U V W X Y k R Z `  .    ",
"  2 ) ..= +.@.( ( ( ( ( ( k k S #.$.%.&.*.=.k -.;.>.,.    ",
"  '.).% '.!.~.j * ( ( ( J k {.].^./.(._.3 k k :.h <.[.    ",
"  9 [ }.|.1.9 ] 2.3.O 4.5.6.7.8.9.0.a.b.@.k k c.z d.[.    ",
"    Z 3.k @.e.f.g.h.i.j.k.l.m.n.o.p.q.r.5 k k ( s.t.u.    ",
"    v.w.x.k k * ! y.z.A.B.C.D.E.F.G.c.2 < . k ( H.I.J.    ",
"    K.g._ k k k L.M.N.O.P.Q.R.S.T.* k 6 q d.U.E V.W.K.    ",
"    f X.Y.k k k Z.`. +.+++@+#+$+%+k k k |.&+*+=+&+-+}     ",
"    ;+g 1.k k k >+G ,+'+)+!+~+{+]+k k k k ^+/+(+_+-+:+<+  ",
"    I [+] k k x.1 }+|+1+2+3+4+5+6+k k k k x.7+8+9+-+0+a+  ",
"      v.b+^+6 c+;.2 d+e+f+g+h+e.k _ i+7+! ' 1 Z j+k+l+m+  ",
"      Z _+q.) n+o+p+@.q+3 O r.r+s+t+u+v+X.w+x+y+z+A+B+`   ",
"      /+C+=+D+y f.E $ ..d E+Q o *+f F+G+A H+I+J+K+L+M+    ",
"      N+j+f j+-+O+v+:+t.P+W.Q+R+S+T+U+V+W+b X+            ",
"        P+-+W.(+_+Y+Z+`+u. @.@,.[.K++@N                   ",
"        w ;+@@#@$@%@M &@*@=@K+[.-@                        ",
"          ;@M M *@ .>@,@                                  ",
"            '@)@                                          "};
