/* XPM */
static char * floppy_xpm[] = {
"18 14 128 2",
"  	c None",
". 	c #2F3439",
"+ 	c #2E282A",
"@ 	c #322726",
"# 	c #322826",
"$ 	c #312725",
"% 	c #312523",
"& 	c #312422",
"* 	c #2B2527",
"= 	c #222D39",
"- 	c #323539",
"; 	c #BBD7F5",
"> 	c #BDA2AA",
", 	c #D6968B",
"' 	c #D6958A",
") 	c #D59488",
"! 	c #D38E82",
"~ 	c #D48E82",
"{ 	c #B799A3",
"] 	c #79A7D6",
"^ 	c #19232C",
"/ 	c #293139",
"( 	c #94BEE8",
"_ 	c #C1C1D0",
": 	c #EDD1CB",
"< 	c #EDD0CA",
"[ 	c #EDCFCA",
"} 	c #EDD0CB",
"| 	c #EED1CC",
"1 	c #C1C1CF",
"2 	c #517AA3",
"3 	c #0E161D",
"4 	c #283039",
"5 	c #91BDE8",
"6 	c #CCDDEE",
"7 	c #FAFAFA",
"8 	c #F9F9F9",
"9 	c #F8F8F8",
"0 	c #C4D4E4",
"a 	c #4D739A",
"b 	c #0E141B",
"c 	c #E1E1E1",
"d 	c #DDDDDD",
"e 	c #DCDCDC",
"f 	c #D7D7D7",
"g 	c #CFCFCF",
"h 	c #B9C8D7",
"i 	c #496E93",
"j 	c #0D141A",
"k 	c #FFFFFF",
"l 	c #FCFCFC",
"m 	c #F4F4F4",
"n 	c #EBEBEB",
"o 	c #E7E7E7",
"p 	c #D6D6D6",
"q 	c #C7C7C7",
"r 	c #C4C4C4",
"s 	c #C2C2C2",
"t 	c #C9DBED",
"u 	c #FEFEFF",
"v 	c #EAEAEA",
"w 	c #E6E6E7",
"x 	c #B2C4D5",
"y 	c #97BADC",
"z 	c #B8CEE5",
"A 	c #AEC3D8",
"B 	c #A9BED2",
"C 	c #A9BDD2",
"D 	c #A8BDD1",
"E 	c #A6BCD1",
"F 	c #7FA2C3",
"G 	c #6699CC",
"H 	c #80A0C0",
"I 	c #99A9B8",
"J 	c #9DACBC",
"K 	c #AFBECE",
"L 	c #B5C4D3",
"M 	c #8C9DAE",
"N 	c #4C6783",
"O 	c #4C7298",
"P 	c #5C8AB8",
"Q 	c #91BCE8",
"R 	c #6293C4",
"S 	c #ABB2B9",
"T 	c #8E949A",
"U 	c #3D5267",
"V 	c #BEC4C9",
"W 	c #C8C8C8",
"X 	c #B1B1B1",
"Y 	c #505E6B",
"Z 	c #45688A",
"` 	c #21282F",
" .	c #7DA5CD",
"..	c #5E8DBB",
"+.	c #B2B7BC",
"@.	c #969EA5",
"#.	c #395775",
"$.	c #A3ABB2",
"%.	c #B8B8B8",
"&.	c #B2B2B2",
"*.	c #515D6A",
"=.	c #446688",
"-.	c #4B7298",
";.	c #496E94",
">.	c #0F1316",
",.	c #3A4D60",
"'.	c #4D7094",
").	c #9FA3A8",
"!.	c #A2A5A8",
"~.	c #606E7B",
"{.	c #8C9093",
"].	c #919191",
"^.	c #808080",
"/.	c #3B4651",
"(.	c #385471",
"_.	c #3F5F7F",
":.	c #3A5775",
"<.	c #0A1015",
"[.	c #0D1013",
"}.	c #0E141A",
"|.	c #1F2020",
"1.	c #242424",
"2.	c #1C1C1C",
"3.	c #191919",
"4.	c #151515",
"5.	c #0A0C0E",
"6.	c #0C1218",
"7.	c #0A0F14",
"          . + @ # # # # $ % & * =   ",
"        - ; > , ' ' ' ' ) ! ~ { ] ^ ",
"        / ( _ : < [ [ [ } < | 1 2 3 ",
"        4 5 6 7 8 8 8 8 8 8 9 0 a b ",
"        4 5 6 c d d d d e f g h i j ",
"        4 5 6 k k k k l m n o h i j ",
"        4 5 6 e f p g q r s q h i j ",
"        4 5 t u 9 v o o o o w x i j ",
"        4 5 y z A B B B C D E F i j ",
"        4 5 G H I J K L M N O P i j ",
"        4 Q R S T U V W X Y Z a i j ",
"        `  ...+.@.#.$.%.&.*.=.-.;.j ",
"        >.,.'.).!.~.{.].^./.(._.:.<.",
"          [.}.|.1.2.2.3.4.5.<.6.7.  "};
