/* XPM */
static char * folder_xpm[] = {
"18 14 49 1",
" 	c None",
".	c #000000",
"+	c #685E46",
"@	c #FFFFFF",
"#	c #A4946F",
"$	c #FEFEF7",
"%	c #C0B59C",
"&	c #D5CEBD",
"*	c #C4BAA2",
"=	c #EFEDE7",
"-	c #C5BBA4",
";	c #C5BBA3",
">	c #E9E5DC",
",	c #D4CDBC",
"'	c #AD9E7D",
")	c #A99A77",
"!	c #DAD4C5",
"~	c #F1EEE8",
"{	c #B5A88A",
"]	c #AFA281",
"^	c #A59671",
"/	c #D5CDBC",
"(	c #EBE8E0",
"_	c #ECE8E0",
":	c #CBC2AD",
"<	c #B9AD91",
"[	c #B8AC8F",
"}	c #AA9B78",
"|	c #F3F1EC",
"1	c #C7BDA6",
"2	c #B7AA8D",
"3	c #B5A98B",
"4	c #B4A789",
"5	c #AB9C7B",
"6	c #D7D1C1",
"7	c #B7AB8E",
"8	c #B6A98C",
"9	c #B8AB8E",
"0	c #B3A688",
"a	c #B1A484",
"b	c #A89975",
"c	c #938463",
"d	c #D2CAB8",
"e	c #B4A788",
"f	c #CFC7B3",
"g	c #AEA07F",
"h	c #A79875",
"i	c #C1B69D",
"j	c #A79774",
"              ..  ",
"      ..    .+@...",
"     .#.  .+$..%&.",
"     .#..+$..*=-#.",
"     .++$..;>,')#.",
"     .$..!~!{{]^#.",
"     ../(_:<['}##.",
"     ..|1<2345###.",
"     ..67{89'###+.",
"     ..&{08ab#c.. ",
"     ..d{{e}#..   ",
"     ..f3gh..     ",
"      .ij..       ",
"       ..         "};
