/* XPM */
static char * folder_xpm[] = {
"18 14 34 1",
" 	c None",
".	c #000000",
"+	c #6D4D2B",
"@	c #FFFFFF",
"#	c #FFFF94",
"$	c #FEFEF7",
"%	c #FFF394",
"&	c #FFED94",
"*	c #FFF794",
"=	c #FEEC94",
"-	c #FFEB94",
";	c #FFE594",
">	c #FFFB94",
",	c #FFF594",
"'	c #FFEF94",
")	c #FFE994",
"!	c #FFE394",
"~	c #FFDD94",
"{	c #FFF994",
"]	c #FFE794",
"^	c #FFE194",
"/	c #FFDB94",
"(	c #FFD594",
"_	c #FFFD94",
":	c #FFF194",
"<	c #FFDF94",
"[	c #FED693",
"}	c #FFD394",
"|	c #FFCE94",
"1	c #FFD794",
"2	c #FFD194",
"3	c #FFCF94",
"4	c #FFD994",
"5	c #FED293",
"              ..  ",
"      ..    .+@...",
"     .#.  .+$..%&.",
"     .#..+$..*=-;.",
"     .++$..>,')!~.",
"     .$..#{%&]^/(.",
"     ..#_*:-;<[}|.",
"     ..>,')!~12||.",
"     ..%&]^/(3|||.",
"     ..-;<4}|||.. ",
"     ..!~125|..   ",
"     ../(3|..     ",
"      .}|..       ",
"       ..         "};
