/* XPM */
static char * harddisk2_xpm[] = {
"22 16 95 2",
"  	c None",
". 	c #272727",
"+ 	c #141414",
"@ 	c #2F2F2F",
"# 	c #454545",
"$ 	c #7D7D7D",
"% 	c #7C7C7C",
"& 	c #565656",
"* 	c #2D2D2D",
"= 	c #2A2A2A",
"- 	c #666666",
"; 	c #7F7F7F",
"> 	c #707070",
", 	c #424242",
"' 	c #1D1D1D",
") 	c #2E2E2E",
"! 	c #3E3E3E",
"~ 	c #838383",
"{ 	c #979797",
"] 	c #989898",
"^ 	c #8B8B8B",
"/ 	c #595959",
"( 	c #313131",
"_ 	c #292929",
": 	c #626262",
"< 	c #B4B4B4",
"[ 	c #CECECE",
"} 	c #CFCFCF",
"| 	c #BBBBBB",
"1 	c #888888",
"2 	c #727272",
"3 	c #242424",
"4 	c #373737",
"5 	c #767676",
"6 	c #B0B0B0",
"7 	c #BCBCBC",
"8 	c #5B5B5B",
"9 	c #353535",
"0 	c #252525",
"a 	c #555555",
"b 	c #C8C8C8",
"c 	c #404040",
"d 	c #494949",
"e 	c #7E7E7E",
"f 	c #5D5D5D",
"g 	c #121212",
"h 	c #323232",
"i 	c #737373",
"j 	c #CDCDCD",
"k 	c #A2A2A2",
"l 	c #333333",
"m 	c #232323",
"n 	c #484848",
"o 	c #8E8E8E",
"p 	c #AFAFAF",
"q 	c #BEBEBE",
"r 	c #C0C0C0",
"s 	c #B2B2B2",
"t 	c #939393",
"u 	c #393939",
"v 	c #787878",
"w 	c #3B3B3B",
"x 	c #444444",
"y 	c #777777",
"z 	c #3F3F3F",
"A 	c #505050",
"B 	c #808080",
"C 	c #5A5A5A",
"D 	c #363636",
"E 	c #4F4F4F",
"F 	c #6A6A6A",
"G 	c #747474",
"H 	c #6E6E6E",
"I 	c #7B7B7B",
"J 	c #1A1A1A",
"K 	c #191919",
"L 	c #6B6B6B",
"M 	c #434343",
"N 	c #717171",
"O 	c #6C6C6C",
"P 	c #282828",
"Q 	c #222222",
"R 	c #1B1B1B",
"S 	c #757575",
"T 	c #464646",
"U 	c #3D3D3D",
"V 	c #535353",
"W 	c #545454",
"X 	c #676767",
"Y 	c #646464",
"Z 	c #797979",
"` 	c #383838",
" .	c #656565",
"..	c #2C2C2C",
"+.	c #1F1F1F",
"                        . +                 ",
"                    @ # $ % & *             ",
"                  = - ; ; ; ; ; > , '       ",
"              ) ! ~ { ] ^ ; ; ; ; ; $ / ( ) ",
"            _ : < [ } } } | 1 ; ; ; ; 2 ( 3 ",
"          4 5 6 } } } } } } 7 ; ; ; 8 9 5 ) ",
"      0 a ; ; 7 } } } } } } b ; $ c d e f g ",
"    h i ; ; ; { j } } } } [ k > l - $ c     ",
"m n e ; ; ; ; ; o p q r s t / u v 2 3       ",
"@ w x y ; ; ; ; ; ; ; ; % z A B C g         ",
"D E F ! c G ; ; ; ; ; H l F I !             ",
"J 3 K ! L M ! N ; ; & w I O P               ",
"    Q = R / S T U w V e V 3                 ",
"        . W V X Y a Z `                     ",
"            = U  .# ..                      ",
"                +.Q                         "};
