/* XPM */
static char * harddisk_xpm[] = {
"22 16 30 1",
" 	c None",
".	c #000000",
"+	c #7C7C7C",
"@	c #7F7F7F",
"#	c #838383",
"$	c #979797",
"%	c #989898",
"&	c #8B8B8B",
"*	c #626262",
"=	c #B4B4B4",
"-	c #CECECE",
";	c #CFCFCF",
">	c #BBBBBB",
",	c #888888",
"'	c #767676",
")	c #B0B0B0",
"!	c #BCBCBC",
"~	c #C8C8C8",
"{	c #CDCDCD",
"]	c #A2A2A2",
"^	c #7E7E7E",
"/	c #8E8E8E",
"(	c #AFAFAF",
"_	c #BEBEBE",
":	c #C0C0C0",
"<	c #B2B2B2",
"[	c #939393",
"}	c #595959",
"|	c #00CE00",
"1	c #797979",
"             .        ",
"           ..+..      ",
"         ..@@@@@..    ",
"       ..#$%&@@@@@..  ",
"     ..*=-;;;>,@@@@@. ",
"   ..@');;;;;;!@@@@@@.",
" ..@@@@!;;;;;;~@@@@...",
".@@@@@@${;;;;-]@@..@@.",
"..^@@@@@/(_:<[}..@@@@.",
".@..@@@@@@@@+..@@@@.. ",
".@@@..@@@@@..@@@@..   ",
".@@@@@..@..@@@@..     ",
" ..@@@|@.@@@@..       ",
"   ..@@@.@1..         ",
"     ..@...           ",
"       ..             "};
