/* XPM */
static char * harddisk_xpm[] = {
"22 16 127 2",
"  	c None",
". 	c #858585",
"+ 	c #6F6F6F",
"@ 	c #717171",
"# 	c #A2A2A2",
"$ 	c #B3B3B3",
"% 	c #ABABAB",
"& 	c #8A8A8A",
"* 	c #797979",
"= 	c #7F7F7F",
"- 	c #AFAFAF",
"; 	c #AEAEAE",
"> 	c #A6A6A6",
", 	c #9B9B9B",
"' 	c #939393",
") 	c #8B8B8B",
"! 	c #848484",
"~ 	c #6D6D6D",
"{ 	c #6B6B6B",
"] 	c #9E9E9E",
"^ 	c #C9C9C9",
"/ 	c #CECECE",
"( 	c #CACACA",
"_ 	c #BDBDBD",
": 	c #959595",
"< 	c #808080",
"[ 	c #747474",
"} 	c #686868",
"| 	c #626262",
"1 	c #616161",
"2 	c #646464",
"3 	c #757575",
"4 	c #B6B6B6",
"5 	c #CFCFCF",
"6 	c #CBCBCB",
"7 	c #C5C5C5",
"8 	c #B7B7B7",
"9 	c #A7A7A7",
"0 	c #979797",
"a 	c #878787",
"b 	c #787878",
"c 	c #666666",
"d 	c #5C5C5C",
"e 	c #565656",
"f 	c #535353",
"g 	c #828282",
"h 	c #9C9C9C",
"i 	c #C7C7C7",
"j 	c #BFBFBF",
"k 	c #B0B0B0",
"l 	c #A0A0A0",
"m 	c #909090",
"n 	c #525252",
"o 	c #4B4B4B",
"p 	c #4F4F4F",
"q 	c #C1C1C1",
"r 	c #8D8D8D",
"s 	c #6E6E6E",
"t 	c #8C8C8C",
"u 	c #919191",
"v 	c #898989",
"w 	c #A9A9A9",
"x 	c #B9B9B9",
"y 	c #AAAAAA",
"z 	c #999999",
"A 	c #7A7A7A",
"B 	c #696969",
"C 	c #5A5A5A",
"D 	c #3F3F3F",
"E 	c #515151",
"F 	c #888888",
"G 	c #777777",
"H 	c #8F8F8F",
"I 	c #727272",
"J 	c #838383",
"K 	c #737373",
"L 	c #636363",
"M 	c #434343",
"N 	c #8E8E8E",
"O 	c #A5A5A5",
"P 	c #818181",
"Q 	c #7D7D7D",
"R 	c #767676",
"S 	c #676767",
"T 	c #5F5F5F",
"U 	c #575757",
"V 	c #505050",
"W 	c #4C4C4C",
"X 	c #474747",
"Y 	c #3E3E3E",
"Z 	c #343434",
"` 	c #3A3A3A",
" .	c #656565",
"..	c #707070",
"+.	c #5D5D5D",
"@.	c #555555",
"#.	c #4E4E4E",
"$.	c #464646",
"%.	c #373737",
"&.	c #2F2F2F",
"*.	c #2B2B2B",
"=.	c #424242",
"-.	c #606060",
";.	c #444444",
">.	c #3C3C3C",
",.	c #353535",
"'.	c #2D2D2D",
").	c #252525",
"!.	c #292929",
"~.	c #4A4A4A",
"{.	c #191919",
"].	c #3D3D3D",
"^.	c #4D4D4D",
"/.	c #303030",
"(.	c #232323",
"_.	c #1C1C1C",
":.	c #6A6A6A",
"<.	c #454545",
"[.	c #171717",
"}.	c #484848",
"|.	c #5B5B5B",
"1.	c #363636",
"2.	c #595959",
"3.	c #383838",
"4.	c #262626",
"5.	c #6C6C6C",
"6.	c #404040",
"                        . +                 ",
"                    @ # $ % & *             ",
"                  = - ; > , ' ) ! ~ ~       ",
"              { ] ^ / ( _ % : < [ ~ } | 1 2 ",
"            3 4 5 6 7 8 9 0 a b c d e f 1 @ ",
"          g h i i j k l m < @ 1 n o p [ q r ",
"      s t u v w x y z v A B C o D E F 8 l   ",
"    G H a < b I J t g K L f M D d N O P     ",
"K = . Q R s S T U V W X Y Z `  .v H ..      ",
"~ * @ ~ 2 +.@.#.$.Y %.&.*.=.} b * {         ",
"P -.P s +.#.;.>.,.'.).!.~.+. .~             ",
"b ~.{.].s  .^./.(._.'.p ^.U 1               ",
"    :.<.[.}. .|.].%.X 1.~.|                 ",
"        } 1 Z M 2.3.4.$.                    ",
"            5.X @.6.#.                      ",
"                2 ^.                        "};
