/* XPM */
static char * import_xpm[] = {
"24 24 159 2",
"  	c None",
". 	c #959595",
"+ 	c #555555",
"@ 	c #555046",
"# 	c #15130E",
"$ 	c #655945",
"% 	c #554935",
"& 	c #443A2A",
"* 	c #2A2823",
"= 	c #959391",
"- 	c #908B84",
"; 	c #504127",
"> 	c #9F814E",
", 	c #EFC274",
"' 	c #FFCF7C",
") 	c #DFB56D",
"! 	c #888888",
"~ 	c #6A604D",
"{ 	c #9F8250",
"] 	c #2B261C",
"^ 	c #AAAAAA",
"/ 	c #403A2F",
"( 	c #B59358",
"_ 	c #FACB79",
": 	c #95928E",
"< 	c #453E33",
"[ 	c #CFA865",
"} 	c #716959",
"| 	c #B5935A",
"1 	c #EABE72",
"2 	c #60523A",
"3 	c #E4B96F",
"4 	c #604E2F",
"5 	c #40341F",
"6 	c #55472F",
"7 	c #5A5347",
"8 	c #55514B",
"9 	c #504738",
"0 	c #BF9B5D",
"a 	c #F4C677",
"b 	c #CAA462",
"c 	c #302717",
"d 	c #33312D",
"e 	c #554D3F",
"f 	c #32302E",
"g 	c #353535",
"h 	c #75613E",
"i 	c #39332A",
"j 	c #090909",
"k 	c #4C4D4D",
"l 	c #161919",
"m 	c #252626",
"n 	c #242424",
"o 	c #6B6B6B",
"p 	c #554E3F",
"q 	c #706147",
"r 	c #525555",
"s 	c #2D3232",
"t 	c #1D2222",
"u 	c #212626",
"v 	c #404949",
"w 	c #151818",
"x 	c #434343",
"y 	c #959491",
"z 	c #655944",
"A 	c #7A6644",
"B 	c #615B4F",
"C 	c #696E6E",
"D 	c #526060",
"E 	c #6A7C7C",
"F 	c #171A1A",
"G 	c #323A3A",
"H 	c #738585",
"I 	c #A3A5A5",
"J 	c #2B2824",
"K 	c #8A7147",
"L 	c #755F39",
"M 	c #616161",
"N 	c #373939",
"O 	c #3D4747",
"P 	c #364040",
"Q 	c #B0CDCD",
"R 	c #738787",
"S 	c #9BB5B5",
"T 	c #92AAAA",
"U 	c #777A7A",
"V 	c #252525",
"W 	c #494236",
"X 	c #6A6865",
"Y 	c #161717",
"Z 	c #0F1212",
"` 	c #4E5B5B",
" .	c #BFDFDF",
"..	c #DAFFFF",
"+.	c #404A4A",
"@.	c #747575",
"#.	c #7F673E",
"$.	c #655334",
"%.	c #4B5353",
"&.	c #4A5555",
"*.	c #080909",
"=.	c #252B2B",
"-.	c #617171",
";.	c #A8C5C5",
">.	c #505656",
",.	c #AEAEAE",
"'.	c #403C35",
").	c #5B6868",
"!.	c #6E8080",
"~.	c #2B3232",
"{.	c #495555",
"].	c #151616",
"^.	c #647575",
"/.	c #474D4D",
"(.	c #D4AC67",
"_.	c #4A3C24",
":.	c #464E4E",
"<.	c #6D8080",
"[.	c #4A5656",
"}.	c #607070",
"|.	c #2F3434",
"1.	c #576565",
"2.	c #5D6A6A",
"3.	c #A5A7A7",
"4.	c #55452A",
"5.	c #C5A060",
"6.	c #665B49",
"7.	c #7F7D78",
"8.	c #404040",
"9.	c #5E6C6C",
"0.	c #2D2F2F",
"a.	c #798C8C",
"b.	c #888A8A",
"c.	c #3A4343",
"d.	c #767777",
"e.	c #806A46",
"f.	c #221E17",
"g.	c #000000",
"h.	c #5B6A6A",
"i.	c #434747",
"j.	c #333535",
"k.	c #3C4444",
"l.	c #424A4A",
"m.	c #4A4E4E",
"n.	c #453E32",
"o.	c #88847D",
"p.	c #3C3E3E",
"q.	c #898989",
"r.	c #313131",
"s.	c #595F5F",
"t.	c #495151",
"u.	c #3C4242",
"v.	c #555047",
"w.	c #484C4C",
"x.	c #3F4040",
"y.	c #848686",
"z.	c #373B3B",
"A.	c #828383",
"B.	c #D5D5D5",
"                                                ",
"                              . + +             ",
"                          @ # $ % % & * =       ",
"                      - ; > , ' ' ' ' ) ;       ",
"                  ! ~ { ' ' ' ' ' ' ' ' ) ]     ",
"                ^ / ( _ ' ' ' ' ' ' ' ' ' &     ",
"              : < [ ' ' ' ' ' ' ' ' ' ' ' % +   ",
"              } | ' ' ' ' ' ' ' ' ' ' 1 ( % +   ",
"              2 3 ' ' ' ' ' [ ; 4 ; 5 6 7 8     ",
"            9 0 ' ' ' ' a b c d e f g           ",
"            4 ' ' ' ' ) h i j k l m n o         ",
"          p ) ' ' ' 0 q   r s t u v w x         ",
"        y z ' ' , A B     C t D E F G H I       ",
"    +   J K ' 1 L M       N O P Q R S T U       ",
"  + V p W [ , L X         Y Z `  ... .+.@.      ",
"  + % > #.) $.+           %.&.*.=.-.;.>.,.      ",
"  + % ' ' ) 6 i '.        ).!.~.{.].^./.        ",
"  + % ' ' ' (._.'.      :.<.[.}.<.|.1.2.3.      ",
"    4.' 1 5.6.7.      8.^.9.0.^.a.b.c.^.d.      ",
"    4.b e.f.          g.h.i.j.{.k.  l.{.m.      ",
"    4.n.o.            g p.q.r.S s.  t.{.u.      ",
"    v.                      w.x.y.    z.A.      ",
"                              B.                ",
"                                                "};
