/* XPM */
static char * keyringeditor_xpm[] = {
"24 24 177 2",
"  	c None",
". 	c #060403",
"+ 	c #1C130C",
"@ 	c #120D08",
"# 	c #110D0A",
"$ 	c #232222",
"% 	c #100F0F",
"& 	c #141413",
"* 	c #181818",
"= 	c #2B2B2B",
"- 	c #030100",
"; 	c #000000",
"> 	c #040200",
", 	c #030201",
"' 	c #0F0C09",
") 	c #07090A",
"! 	c #000101",
"~ 	c #050606",
"{ 	c #171C1E",
"] 	c #202729",
"^ 	c #070706",
"/ 	c #5B4D41",
"( 	c #242E30",
"_ 	c #1B2224",
": 	c #3C4B4F",
"< 	c #151B1D",
"[ 	c #3D4D50",
"} 	c #96BDC6",
"| 	c #729097",
"1 	c #98BFC9",
"2 	c #303C3F",
"3 	c #0B0C0D",
"4 	c #1D1915",
"5 	c #2D393C",
"6 	c #273234",
"7 	c #485B5F",
"8 	c #37474A",
"9 	c #AAD6E1",
"0 	c #475A5E",
"a 	c #040606",
"b 	c #191F21",
"c 	c #263032",
"d 	c #89ACB5",
"e 	c #232B2D",
"f 	c #5A5149",
"g 	c #283335",
"h 	c #141A1C",
"i 	c #627C82",
"j 	c #14191A",
"k 	c #77979E",
"l 	c #ABD7E2",
"m 	c #38474B",
"n 	c #020202",
"o 	c #0A0C0D",
"p 	c #96BDC7",
"q 	c #90B5BE",
"r 	c #392718",
"s 	c #252524",
"t 	c #313D41",
"u 	c #14191B",
"v 	c #14191C",
"w 	c #74929A",
"x 	c #4A5D62",
"y 	c #678289",
"z 	c #9FC9D4",
"A 	c #13120F",
"B 	c #3E3C3C",
"C 	c #283234",
"D 	c #121718",
"E 	c #94BAC4",
"F 	c #020404",
"G 	c #76959D",
"H 	c #637E84",
"I 	c #0A0907",
"J 	c #6B6968",
"K 	c #0C0C0C",
"L 	c #171D1E",
"M 	c #586E74",
"N 	c #212A2C",
"O 	c #3A4A4D",
"P 	c #5B7379",
"Q 	c #617A80",
"R 	c #21292B",
"S 	c #433F3B",
"T 	c #192022",
"U 	c #0F1213",
"V 	c #222B2D",
"W 	c #181F1F",
"X 	c #313E41",
"Y 	c #8CB0B9",
"Z 	c #80A1A9",
"` 	c #20282A",
" .	c #2F2E2E",
"..	c #415256",
"+.	c #A5D0DA",
"@.	c #111617",
"#.	c #181E20",
"$.	c #161C1E",
"%.	c #080A0B",
"&.	c #A1CBD5",
"*.	c #6D8990",
"=.	c #3E4F54",
"-.	c #0F1313",
";.	c #9FC8D2",
">.	c #96BCC6",
",.	c #6D8A91",
"'.	c #3A484C",
").	c #A0CAD4",
"!.	c #4A5D61",
"~.	c #13181A",
"{.	c #7E9FA7",
"].	c #3A4A4E",
"^.	c #332316",
"/.	c #4F6368",
"(.	c #A9D5E0",
"_.	c #1C2426",
":.	c #080A0A",
"<.	c #AAD6E0",
"[.	c #374649",
"}.	c #271B10",
"|.	c #81A2AA",
"1.	c #131312",
"2.	c #5B7278",
"3.	c #9AC1CA",
"4.	c #0C0C0B",
"5.	c #030304",
"6.	c #93BAC3",
"7.	c #0D1113",
"8.	c #A7D2DD",
"9.	c #1F282A",
"0.	c #0E1112",
"a.	c #6A868D",
"b.	c #688289",
"c.	c #20160E",
"d.	c #090C0D",
"e.	c #101415",
"f.	c #261A10",
"g.	c #171D1F",
"h.	c #5D767C",
"i.	c #0F0F0F",
"j.	c #0B0E0E",
"k.	c #9AC2CC",
"l.	c #38464B",
"m.	c #161616",
"n.	c #2A3537",
"o.	c #3F5054",
"p.	c #31271E",
"q.	c #020000",
"r.	c #0D0F10",
"s.	c #232C2F",
"t.	c #85A7B0",
"u.	c #1E2629",
"v.	c #364447",
"w.	c #81A3AB",
"x.	c #0E0E0E",
"y.	c #111516",
"z.	c #383838",
"A.	c #281E16",
"B.	c #39474B",
"C.	c #51676C",
"D.	c #0B0E0F",
"E.	c #010202",
"F.	c #0D1011",
"G.	c #161B1D",
"H.	c #0A0A0A",
"I.	c #040404",
"J.	c #8FB4BD",
"K.	c #374549",
"L.	c #070808",
"M.	c #0A0C0C",
"N.	c #070A0A",
"O.	c #3B4A4E",
"P.	c #0D0D0D",
"Q.	c #5F787E",
"R.	c #6A858C",
"S.	c #020303",
"T.	c #0A0D0E",
"                  . + @ # $                     ",
"                % &       * =                   ",
"                -           ; ;                 ",
"              ; >             ;                 ",
"                ,           ; ;                 ",
"                ' ; ) ! ~ { ] ^ /               ",
"              ( _ : < [ } | 1 2 3               ",
"            4 5 6 7 8 9 0 a b c d e             ",
"          f g h i j k l m n o p l q r           ",
"          s t u d v w 9 9 x y 9 9 z A           ",
"          B C D E F G 9 9 9 9 9 9 H I           ",
"          J K L M N O P 9 9 9 9 Q R             ",
"            S T U V W X Y 9 9 Z `               ",
"             ...+.@.#.$.%.5 &.*.=.              ",
"            -.;.>.o 5 ,.5   '.).!.              ",
"          ~.{.9 ].^./.(._.  :.<.[.}.            ",
"          ( 9 |.; 1.2.3.4.  5.(.6.K             ",
"        7.| 8.9.  0.a.b.c.  d.;.9 e.            ",
"      f.g.9 h.i.  j.k.l.    m.n.9 o.p.          ",
"      q.k.1 r.    s.t.u.      v.9 w.x.          ",
"    a R a.y.z.  A.B.C.D.      E.d (.F.          ",
"      G.@.H.    I.J.K.L.      M.} 9 _.          ",
"                N.O.D         P.Q.R.S.          ",
"                  T.            a ; ;           "};
