/* XPM */
static char * sign_xpm[] = {
"24 24 225 2",
"  	c None",
". 	c #797255",
"+ 	c #80764E",
"@ 	c #7C6715",
"# 	c #BE9F1F",
"$ 	c #987E18",
"% 	c #816D19",
"& 	c #71611F",
"* 	c #F1C926",
"= 	c #E4BF24",
"- 	c #423F2F",
"; 	c #685817",
"> 	c #978021",
", 	c #84732F",
"' 	c #FED529",
") 	c #F4CC27",
"! 	c #75662A",
"~ 	c #A38B29",
"{ 	c #BA9C1D",
"] 	c #685919",
"^ 	c #FED428",
"/ 	c #FFD529",
"( 	c #F0C826",
"_ 	c #F6CE27",
": 	c #AC9020",
"< 	c #3F3719",
"[ 	c #AE9220",
"} 	c #D7B322",
"| 	c #DDB923",
"1 	c #F5CC27",
"2 	c #CEAC21",
"3 	c #534B26",
"4 	c #A58A1E",
"5 	c #B8991D",
"6 	c #5B5331",
"7 	c #655C36",
"8 	c #70632D",
"9 	c #6D602D",
"0 	c #4B473A",
"a 	c #826F21",
"b 	c #9A8119",
"c 	c #554F38",
"d 	c #9A821E",
"e 	c #DAB623",
"f 	c #5F5324",
"g 	c #BC9E20",
"h 	c #BC9D20",
"i 	c #544C31",
"j 	c #987F1D",
"k 	c #CCAA21",
"l 	c #4F420C",
"m 	c #101010",
"n 	c #4C4C4C",
"o 	c #6B6B6B",
"p 	c #8F8F8F",
"q 	c #5D5D5D",
"r 	c #11100A",
"s 	c #7E6B1A",
"t 	c #8A741C",
"u 	c #585340",
"v 	c #908F8F",
"w 	c #83701F",
"x 	c #E1BC24",
"y 	c #625418",
"z 	c #5F5F5F",
"A 	c #BDBDBD",
"B 	c #D6D6D6",
"C 	c #E2E2E2",
"D 	c #CECECE",
"E 	c #625B3E",
"F 	c #A78C1D",
"G 	c #C7A61F",
"H 	c #56480E",
"I 	c #1C1B14",
"J 	c #757474",
"K 	c #78661C",
"L 	c #76651C",
"M 	c #444444",
"N 	c #414141",
"O 	c #DBDBDB",
"P 	c #B6B6B6",
"Q 	c #6D6D6D",
"R 	c #46453F",
"S 	c #4A4019",
"T 	c #776312",
"U 	c #A4891A",
"V 	c #251F0A",
"W 	c #3B3B3B",
"X 	c #555555",
"Y 	c #141414",
"Z 	c #383838",
"` 	c #3E3E3E",
" .	c #1B1B1B",
"..	c #202020",
"+.	c #A1A1A1",
"@.	c #C8C8C8",
"#.	c #7E7E7E",
"$.	c #41403E",
"%.	c #816C14",
"&.	c #C7A620",
"*.	c #221C05",
"=.	c #110E03",
"-.	c #6A6A6A",
";.	c #EDEDED",
">.	c #B7B7B7",
",.	c #5C5C5C",
"'.	c #3C3C3C",
").	c #090909",
"!.	c #020202",
"~.	c #010101",
"{.	c #151515",
"].	c #C1C1C1",
"^.	c #403F3E",
"/.	c #645A30",
"(.	c #AE911B",
"_.	c #A2881D",
":.	c #322D15",
"<.	c #252525",
"[.	c #4E4E4E",
"}.	c #C3C3C3",
"|.	c #F3F3F3",
"1.	c #FEFEFE",
"2.	c #DFDFDF",
"3.	c #000000",
"4.	c #070707",
"5.	c #404040",
"6.	c #060606",
"7.	c #696863",
"8.	c #67581C",
"9.	c #C5A51F",
"0.	c #85701B",
"a.	c #6C6A61",
"b.	c #A9A9A9",
"c.	c #C0C0C0",
"d.	c #FDFDFD",
"e.	c #F9F9F9",
"f.	c #D3D3D3",
"g.	c #FFFFFF",
"h.	c #3C3B3B",
"i.	c #171304",
"j.	c #9A811C",
"k.	c #BB9C1D",
"l.	c #392F09",
"m.	c #63625E",
"n.	c #A3A3A3",
"o.	c #E5E5E5",
"p.	c #F5F5F5",
"q.	c #E7E7E7",
"r.	c #D7D7D7",
"s.	c #DEDEDE",
"t.	c #0E0E0E",
"u.	c #EEEEEE",
"v.	c #4E4D4D",
"w.	c #4A3F10",
"x.	c #746113",
"y.	c #1C1704",
"z.	c #1E1E1E",
"A.	c #737373",
"B.	c #6E6E6E",
"C.	c #4B4A4A",
"D.	c #1C1C1C",
"E.	c #2A2A2A",
"F.	c #434343",
"G.	c #424242",
"H.	c #0C0C0C",
"I.	c #111010",
"J.	c #363636",
"K.	c #53514D",
"L.	c #636260",
"M.	c #161515",
"N.	c #1A1A1A",
"O.	c #6A6969",
"P.	c #797777",
"Q.	c #727171",
"R.	c #5B5A5A",
"S.	c #676666",
"T.	c #7B7979",
"U.	c #817F7F",
"V.	c #2A2929",
"W.	c #030303",
"X.	c #212121",
"Y.	c #2D2D2D",
"Z.	c #979696",
"`.	c #A2A0A0",
" +	c #C2C1C1",
".+	c #CFCECE",
"++	c #737272",
"@+	c #504F4F",
"#+	c #7F7E7E",
"$+	c #656464",
"%+	c #9F9D9D",
"&+	c #A19F9F",
"*+	c #BAB9B9",
"=+	c #7C7A7A",
"-+	c #3B3A3A",
";+	c #3D3D3D",
">+	c #232323",
",+	c #CCCBCB",
"'+	c #FBFBFB",
")+	c #D8D7D7",
"!+	c #A1A0A0",
"~+	c #9C9A9A",
"{+	c #AFAEAE",
"]+	c #828080",
"^+	c #9E9C9C",
"/+	c #4D4D4D",
"(+	c #0A0A0A",
"_+	c #3A3A3A",
":+	c #BFBFBF",
"<+	c #595959",
"[+	c #908E8E",
"}+	c #595858",
"|+	c #909090",
"1+	c #8F8D8D",
"2+	c #A7A5A5",
"3+	c #B4B3B3",
"4+	c #4D4C4C",
"5+	c #0B0B0B",
"6+	c #2B2B2B",
"7+	c #7A7878",
"8+	c #A9A8A8",
"9+	c #575555",
"0+	c #807F7F",
"a+	c #A8A6A6",
"b+	c #B0AEAE",
"              . +                               ",
"            @ # $ %                             ",
"          & * = - ; >                           ",
"          , ' ) ! ~ {                           ",
"          ] ^ / ( _ :                           ",
"        < [ } | 1 2 3                           ",
"        4 5 6 7 8 9             0 a b c         ",
"      d e f                   6 g h i           ",
"    j k l       m n o p q r s 2 t u v           ",
"  w x y       z A B C D E F G H I J             ",
"  K L M     N O P Q R S T U V W X Y Z     `  .  ",
"          ..+.@.#.$.%.&.*.=.-.O ;.>.,.'.).!.~.  ",
"          {.].^./.(._.:.<.[.}.|.1.1.1.2.3.3.4.  ",
"        5.6.7.8.9.0.a.b.c.D C d.1.1.e.f.3.3.!.  ",
"  g.g.d.h.i.j.k.l.m.n.o.p.q.r.s.q.q.n.p 3.3.t.  ",
"  f.g.u.v.w.x.y.3.z.M A.B.C.D.E.F.G.H.I...H.H.  ",
"  5.f.n.J.K.L.M.!.4.).~.N.O.P.Q.R.R.S.T.U.V.W.  ",
"  X.Y.Z.`. +.+++@+++#+G.$+      %+&+*+    =+-+  ",
"  ;+~.>+,+'+d.)+!+P.~+{+                    ]+  ",
"  ^+/+(+_+D e.:+<+[+&+                          ",
"    !+}+W.'.|+N 1+2+                            ",
"      3+4+5+6+7+8+                              ",
"          9+0+a+                                ",
"            b+                                  "};
