/* XPM */
static char *verify_xpm[] = {
/* columns rows colors chars-per-pixel */
"36 34 144 2",
"   c #040404",
".  c #0b0b0b",
"X  c #080f11",
"o  c #0d1618",
"O  c #141515",
"+  c #141a1b",
"@  c #1a1c1c",
"#  c #131f22",
"$  c #172124",
"%  c #182426",
"&  c #232323",
"*  c #242b2c",
"=  c gray17",
"-  c #242e30",
";  c #283032",
":  c #2d3639",
">  c #343434",
",  c #333b3d",
"<  c #3b3c3c",
"1  c #253c41",
"2  c #323e41",
"3  c #383f41",
"4  c #264047",
"5  c #274148",
"6  c #2e484e",
"7  c #2c4b52",
"8  c #364245",
"9  c #32474c",
"0  c #3b4345",
"q  c #3c4649",
"w  c #3d4a4e",
"e  c #3e4d51",
"r  c #444444",
"t  c #434a4c",
"y  c #4b4b4b",
"u  c #414e50",
"i  c #435154",
"p  c #45555a",
"a  c #4b5355",
"s  c #4c5659",
"d  c #4e5a5d",
"f  c gray33",
"g  c #525b5c",
"h  c #585857",
"j  c #5b5c5b",
"k  c #4c5e62",
"l  c #4b6066",
"z  c #4c646a",
"x  c #4d6a71",
"c  c #536165",
"v  c #55696e",
"b  c #5b6365",
"n  c #506d74",
"m  c #596e73",
"M  c #55767e",
"N  c #615f5f",
"B  c #626262",
"V  c #646b6c",
"C  c #686767",
"Z  c #6a6a6a",
"A  c #62787d",
"S  c #6f7779",
"D  c #716f6f",
"F  c gray45",
"G  c #767778",
"H  c gray48",
"J  c #597e87",
"K  c #647c82",
"L  c #687f85",
"P  c #747e80",
"I  c #658188",
"U  c #6b8286",
"Y  c #6a838a",
"T  c #6d888e",
"R  c #6d8b92",
"E  c #6e929a",
"W  c #7d8486",
"Q  c #7a8689",
"!  c #718d93",
"~  c #798e92",
"^  c #729199",
"/  c #7c9297",
"(  c #7c949b",
")  c #7297a0",
"_  c #779fa8",
"`  c #78a1aa",
"'  c #7fa9b3",
"]  c #807f7f",
"[  c None",
"{  c #818181",
"}  c #828a8b",
"|  c #888686",
" . c #8c8b8b",
".. c #8c9395",
"X. c #91908a",
"o. c #939393",
"O. c #949b9d",
"+. c #989696",
"@. c #9a9a9a",
"#. c #829ca2",
"$. c #84a4ab",
"%. c #8aa7ae",
"&. c #86a8b0",
"*. c #86aeb9",
"=. c #8daeb6",
"-. c #9ba2a4",
";. c #90b3bc",
":. c #a19f9f",
">. c #a3a29d",
",. c #a4a4a4",
"<. c #a6adae",
"1. c #a8a7a7",
"2. c #acacab",
"3. c #a8afb1",
"4. c #afb3b4",
"5. c #b0afaf",
"6. c #b5b4b4",
"7. c #b2b7b8",
"8. c #b6b9ba",
"9. c #b8b7b7",
"0. c gray75",
"q. c #8fb7c1",
"w. c #96bac3",
"e. c #99bfc8",
"r. c #b7bec0",
"t. c #9bc2cc",
"y. c #9dc6d1",
"u. c #9fcad5",
"i. c #a0ccd7",
"p. c #bfc6c7",
"a. c #c0c7c8",
"s. c #cccdcd",
"d. c gray83",
"f. c #d3d8da",
"g. c gray86",
"h. c #dcdfe0",
"j. c gray89",
"k. c #e5eaeb",
"l. c #ececec",
"z. c #ebeff0",
"x. c #edf0f1",
"c. c whitesmoke",
"v. c #f4f7f8",
"b. c #fefefe",
/* pixels */
"[ [ [ [ [ [ [ [ [ $ } Q / * [ [ [ [ [ [ [ [ [ [ [ [ [ [ [ [ [ [ [ [ [ [ ",
"[ [ [ [ [ [ [ r 4 l =.%./ l + [ [ [ [ [ [ [ [ [ [ [ [ [ [ [ [ [ [ [ [ [ ",
"[ [ [ [ [ [ [ q M y.t.A / I p = [ [ [ [ [ [ [ [ [ [ [ [ [ [ [ [ [ [ [ [ ",
"[ [ [ [ [ [ b n i.i.w.* Z 4 t.& [ [ [ [ [ [ [ [ [ [ [ [ [ [ [ [ [ [ [ [ ",
"[ [ [ [ [ [ j R i.i.y.p L I u.$ [ [ [ [ [ [ [ [ [ [ [ [ [ [ [ [ [ [ [ [ ",
"[ [ [ [ [ [ j 7 u.i.u.t.=.u.y.% [ [ [ [ [ [ [ [ [ [ [ [ [ [ [ [ [ [ [ [ ",
"[ [ [ [ [ [ @ x u.u.i.u.u.u.E $ [ [ [ [ [ [ [ [ [ [ [ [ [ [ [ [ [ [ [ [ ",
"[ [ [ [ [ @ i e.` t.*.u.t.) 8 [ [ [ [ [ [ [ [ [ [ [ [ [ [ [ [ [ [ [ [ [ ",
"[ [ [ [ @ i w.` 6 ~ z R / 1 f [ [ [ [ [ 8.0.7.7.9.9.[ [ [ [ [ [ [ [ [ [ ",
"[ [ [ @ w w.y.: > h < $ h [ [ [ [ [ [ O.g q i k l q q W 9.[ [ [ [ [ [ [ ",
"[ [ + u w.q.R = [ [ [ [ [ [ [ [ [ 9.a i $.t.#.Y ~ ;.w.m , -.[ [ [ [ [ [ ",
"[ + e w.' z # y [ [ [ [ [ [ [ r.<., T ;.p t } 8.-.V 8 T w.8 W [ [ [ [ [ ",
"& e w.t.6 X [ [ [ [ [ [ [ [ [ 9.8 $.Y t a.b.b.b.b.b.k.S e w.8 ..[ [ [ [ ",
"$ w.i.L = [ [ [ [ [ [ [ [ s.s.b K ! s x.b.b.k.b.b.b.b.b.-.w ;.: 4.[ [ [ ",
"@ ^ ^ @ B [ [ [ [ [ 9.1.{ B f 8 w.8 x.b.b.b.y b.b.b.b.b.b.} M Y V [ [ [ ",
"& o o y [ [ [ [ o.B 0 = > y r ! v 2.b.k.j.b.< b.b.b.b.b.b.x.0 t., [ [ [ ",
"[ [ [ [ [ [ [ [ +.h < N o.9.i t.8 v.b.,. .c.& l.b.2.  b.b.b.W ( s <.[ [ ",
"[ [ [ [ [ [ 9.1.,.>.0.g.l.c.s w.V b.b.,.F g.j 5.v.+.c.c.v.,.p.m M O.[ [ ",
"[ [ [ [ [ [ 6.W @.f.c.b.b.b.d =...b.b.@.B 0.1.Z b.b.g.B Z s.k.c K O.[ [ ",
"[ [ [ [ [ [ 9.H C g.b.b.b.b.s w.V b.b. .h 2.  | d.9.0.o.k.b.p.m K O.[ [ ",
"[ [ [ [ [ [ [ H 3 6.v.b.b.k.g t.8 v.b. .Z W g.d.o.< f d.b.b.W ( p ,.[ [ ",
"[ [ [ [ [ [ [ o.r  .l.b.b.H { ^ v 3.b.H 9.< j.v.r @.> v.b.l.8 w.: ,.[ [ ",
"[ [ [ [ [ [ [ 2.h f g.b.b.F g.0 w.8 l.G v.> x.b.j j.j.b.b.} K U r +.[ [ ",
"[ [ [ [ [ [ [ 6.N = 0.b.b.f s.F Y ! f o.b.9.b.b.v.b.b.b.-.w ;.- 0  .[ [ ",
"[ [ [ [ [ [ [ 9.F = o.l.b.D C G 0 &.Y r p.b.b.b.b.b.k.G e w.8 % & ] 9.[ ",
"[ [ [ [ [ [ [ [ o.> h h.d.< g.r f.0 ! ;.p i } 0.-.V 8 ! w.: * . @ D 6.[ ",
"[ [ [ [ [ [ [ [ 5.r > 0.b.l.b.b.b.z.b i $.t._ A R ;.w.m ; , . O & C >.[ ",
"[ [ [ [ [ [ [ [ 9.f = +.k.c.v.c.v.l.g.<.g 0 i l l , - , < > r j D  .6.[ ",
"[ [ [ [ [ [ [ [ 9.D & f { H 2.s.  ,.| F N f r , 8 y f N D ]  .@.1.2.9.[ ",
"[ [ [ [ [ [ [ [ [ +.& O @ @ < y r > & & = < f C G ]  .o.:.2.5.9.9.[ [ [ ",
"[ [ [ [ [ [ [ [ [ 2.= .   . & = > y C H |  .+.@.:.2.9.9.8.[ [ [ [ [ [ [ ",
"[ [ [ [ [ [ [ [ [ 6.j < r h D ]  .o.+.@.1.1.6.9.9.[ [ [ [ [ [ [ [ [ [ [ ",
"[ [ [ [ [ [ [ [ 5.1.:.o.+.+.@.:.2.2.5.9.9.9.[ [ [ [ [ [ [ [ [ [ [ [ [ [ ",
"[ [ [ [ [ [ [ [ 9.9.9.9.5.9.6.6.9.[ [ [ [ [ [ [ [ [ [ [ [ [ [ [ [ [ [ [ "
};
