/* XPM */
static char * verify_xpm[] = {
"25 24 304 2",
"  	c None",
". 	c #2D3B3F",
"+ 	c #839396",
"@ 	c #7D9196",
"# 	c #2F3A3D",
"$ 	c #405155",
"% 	c #6E8F97",
"& 	c #89A9B1",
"* 	c #799095",
"= 	c #50656B",
"- 	c #2E3537",
"; 	c #596466",
"> 	c #71939B",
", 	c #9DC8D3",
"' 	c #738E95",
") 	c #586062",
"! 	c #537077",
"~ 	c #506165",
"{ 	c #595F5F",
"] 	c #7297A0",
"^ 	c #A0CCD7",
"/ 	c #8CB1BB",
"( 	c #759198",
"_ 	c #88ADB7",
": 	c #50676E",
"< 	c #303739",
"[ 	c #6F929B",
"} 	c #9EC9D4",
"| 	c #9CC5CF",
"1 	c #92BAC4",
"2 	c #40555B",
"3 	c #252A2B",
"4 	c #5D7378",
"5 	c #789EA6",
"6 	c #81A3AB",
"7 	c #7C9FA9",
"8 	c #8FB2BB",
"9 	c #526C72",
"0 	c #212627",
"a 	c #576A6F",
"b 	c #89ACB5",
"c 	c #3E4D51",
"d 	c #555D5E",
"e 	c #3D494C",
"f 	c #556062",
"g 	c #8E9597",
"h 	c #717779",
"i 	c #6A7476",
"j 	c #707E81",
"k 	c #6B7477",
"l 	c #4F585B",
"m 	c #9EA0A1",
"n 	c #1D2527",
"o 	c #5B7075",
"p 	c #85A9B2",
"q 	c #5B747A",
"r 	c #333333",
"s 	c #757C7E",
"t 	c #5B6E72",
"u 	c #78949B",
"v 	c #7F969C",
"w 	c #7C8E93",
"x 	c #80979D",
"y 	c #748F95",
"z 	c #586A6E",
"A 	c #7A8385",
"B 	c #262B2C",
"C 	c #53676C",
"D 	c #86A9B2",
"E 	c #3D555A",
"F 	c #202B2E",
"G 	c #B8BABB",
"H 	c #717C7E",
"I 	c #657C82",
"J 	c #6B8085",
"K 	c #939B9D",
"L 	c #BCC0C0",
"M 	c #D8DADB",
"N 	c #BFC2C3",
"O 	c #8B9698",
"P 	c #6A8085",
"Q 	c #667C82",
"R 	c #687173",
"S 	c #39484C",
"T 	c #90B5BF",
"U 	c #60757A",
"V 	c #2B3031",
"W 	c #BCBDBD",
"X 	c #868B8C",
"Y 	c #657B80",
"Z 	c #697C81",
"` 	c #C0C4C6",
" .	c #F8F8F8",
"..	c #E3E6E6",
"+.	c #FEFEFE",
"@.	c #F5F6F6",
"#.	c #B9BEBF",
"$.	c #64767A",
"%.	c #61767B",
"&.	c #8A9091",
"*.	c #2B3234",
"=.	c #485E64",
"-.	c #383B3B",
";.	c #7F8081",
">.	c #686868",
",.	c #565656",
"'.	c #4E595B",
").	c #728A90",
"!.	c #ADB2B3",
"~.	c #F4F5F6",
"{.	c #7D7D7D",
"].	c #A9B0B2",
"^.	c #637D84",
"/.	c #5B686B",
"(.	c #686867",
"_.	c #434445",
":.	c #6A6A6A",
"<.	c #808282",
"[.	c #6F888E",
"}.	c #677579",
"|.	c #EEEFF0",
"1.	c #C3C4C4",
"2.	c #C8C7C7",
"3.	c #696969",
"4.	c #F6F6F6",
"5.	c #D9D9D9",
"6.	c #808080",
"7.	c #E2E4E4",
"8.	c #77888D",
"9.	c #59676B",
"0.	c #B2B2B2",
"a.	c #9E9F9F",
"b.	c #AFAFAD",
"c.	c #D7D7D7",
"d.	c #EDEDED",
"e.	c #C8CBCC",
"f.	c #768F95",
"g.	c #8F989A",
"h.	c #ADADAD",
"i.	c #989898",
"j.	c #8E8E8E",
"k.	c #BABABA",
"l.	c #CDCDCE",
"m.	c #E1E1E1",
"n.	c #CBCCCC",
"o.	c #B8BABA",
"p.	c #94A0A3",
"q.	c #5E787E",
"r.	c #949B9D",
"s.	c #ADACAD",
"t.	c #7C7D7E",
"u.	c #C3C4C5",
"v.	c #FCFCFC",
"w.	c #CDD0D1",
"x.	c #758E94",
"y.	c #A1A0A0",
"z.	c #818180",
"A.	c #676767",
"B.	c #9F9E9E",
"C.	c #DBDADA",
"D.	c #B8B8B8",
"E.	c #9B9D9D",
"F.	c #DDDFDF",
"G.	c #96A2A4",
"H.	c #657A80",
"I.	c #636565",
"J.	c #999A9A",
"K.	c #F7F9F9",
"L.	c #B4B8B9",
"M.	c #7B949A",
"N.	c #6A787C",
"O.	c #F3F5F5",
"P.	c #9D9D9D",
"Q.	c #767879",
"R.	c #AEB0B0",
"S.	c #6D6D6D",
"T.	c #797979",
"U.	c #E9E9EA",
"V.	c #E5E6E7",
"W.	c #7A8B8F",
"X.	c #59696E",
"Y.	c #A2A3A3",
"Z.	c #7B7B7A",
"`.	c #6F6F6E",
" +	c #898989",
".+	c #7B878A",
"++	c #70878D",
"@+	c #B4B9BA",
"#+	c #9B9B9C",
"$+	c #939494",
"%+	c #B7B8B9",
"&+	c #C0C1C1",
"*+	c #959595",
"=+	c #A6A6A6",
"-+	c #FCFCFD",
";+	c #B1B7B8",
">+	c #657D82",
",+	c #515B5D",
"'+	c #9E9D9D",
")+	c #8E8D8D",
"!+	c #474747",
"~+	c #D8D8D8",
"{+	c #909191",
"]+	c #6E858B",
"^+	c #6F7C7F",
"/+	c #919292",
"(+	c #D2D2D3",
"_+	c #E0E1E1",
":+	c #EFF0F0",
"<+	c #EAEAEB",
"[+	c #CDD1D2",
"}+	c #67767A",
"|+	c #5C7378",
"1+	c #414849",
"2+	c #908E8E",
"3+	c #A4A4A4",
"4+	c #ECEDED",
"5+	c #706F6F",
"6+	c #777777",
"7+	c #6E787B",
"8+	c #6C858C",
"9+	c #A5ADAE",
"0+	c #E4E4E5",
"a+	c #CFD1D2",
"b+	c #9CA4A6",
"c+	c #67787D",
"d+	c #637A80",
"e+	c #222B2D",
"f+	c #252727",
"g+	c #929191",
"h+	c #585858",
"i+	c #727272",
"j+	c #E3E3E3",
"k+	c #C2C3C3",
"l+	c #D3D3D3",
"m+	c #DCDFDF",
"n+	c #889294",
"o+	c #61767A",
"p+	c #749096",
"q+	c #7B989F",
"r+	c #819296",
"s+	c #7F979D",
"t+	c #708B91",
"u+	c #576B70",
"v+	c #30393B",
"w+	c #121414",
"x+	c #232323",
"y+	c #838281",
"z+	c #6F6E6E",
"A+	c #4D4C4C",
"B+	c #DBDBDB",
"C+	c #E8E9EA",
"D+	c #C7C9C9",
"E+	c #CDCECE",
"F+	c #969B9C",
"G+	c #51595A",
"H+	c #465254",
"I+	c #475A5F",
"J+	c #424E51",
"K+	c #394143",
"L+	c #444748",
"M+	c #484848",
"N+	c #5B5B5B",
"O+	c #777676",
"P+	c #868484",
"Q+	c #282929",
"R+	c #424343",
"S+	c #535453",
"T+	c #7E7E7E",
"U+	c #3E3E3E",
"V+	c #5E5D5D",
"W+	c #4A4A4A",
"X+	c #454545",
"Y+	c #4B4B4B",
"Z+	c #525657",
"`+	c #626364",
" @	c #747373",
".@	c #848282",
"+@	c #979696",
"@@	c #A4A3A3",
"#@	c #AFAEAE",
"$@	c #A0A09F",
"%@	c #252525",
"&@	c #101111",
"*@	c #1E1E1E",
"=@	c #363636",
"-@	c #434343",
";@	c #7E7D7D",
">@	c #8C8A8A",
",@	c #979797",
"'@	c #B1B2B2",
")@	c #ACABAB",
"!@	c #6F6F6F",
"~@	c #646464",
"{@	c #767575",
"]@	c #898787",
"^@	c #999898",
"/@	c #A09F9F",
"(@	c #B3B2B2",
"_@	c #B8B7B7",
":@	c #B4B3B3",
"<@	c #B0AFAF",
"[@	c #AAA9A9",
"}@	c #AEADAD",
"            . + @ #                               ",
"          $ % & * = -                             ",
"        ; > , ' ) ! ~                             ",
"        { ] ^ / ( _ :                             ",
"        < [ } } | 1 2                             ",
"      3 4 5 6 7 8 9                               ",
"    0 a b c d e f         g h i j k l m           ",
"  n o p q r             s t u v w x y z A         ",
"B C D E F           G H I J K L M N O P Q R       ",
"S T U V           W X Y Z `  ...+.+.@.#.$.%.&.    ",
"*.=.-.        ;.>.,.'.).!.~. .{.+.+.+.+.].^./.    ",
"            (._.:.<.[.}.|.1.2.3.4.5.6.+.7.8.9.    ",
"        0.a.b.c.d.e.f.g.+.h.i.j.k.l.m.n.o.p.q.r.  ",
"        s.t.u.v.+.w.x.K +.y.z.A.B.C.D.E.F.G.H.r.  ",
"          I.J.K.+.L.M.N.O.P.Q.R.k.S.T.U.V.W.X.Y.  ",
"          Z.`.d.+. +.+++@+#+$+%+&+*+=+-+;+>+,+'+  ",
"          )+!+~++.6.{+]+^+/+(+_+:+<+4.[+}+|+1+2+  ",
"          i.!+3+4+5+6+7+8+}+9+w.0+a+b+c+d+e+f+g+  ",
"            h+i+j+k+l+m+n+o+p+q+r+s+t+u+v+w+x+y+  ",
"            z+A+o.B+C+D+E+F+G+H+I+J+K+L+M+N+O+B.  ",
"            P+Q+R+S+T+U+V+W+X+Y+Z+`+ @.@+@@@#@    ",
"            $@%@&@*@=@-@h+S.;@>@,@$@#@'@          ",
"            )@!@~@{@]@^@/@=+#@(@_@                ",
"            :@<@[@}@}@(@                          "};
